<svg viewBox="0 0 103 160" xmlns="http://www.w3.org/2000/svg" xmlns:xlink="http://www.w3.org/1999/xlink">
<defs>
<svg id="talk" xmlns="http://www.w3.org/2000/svg" viewBox="0 0 512 512" style="height: 512px; width: 512px;"><g class="" transform="translate(0,0)" style=""><path d="M488 348.78h-70.24l-15.1 87.44-48.78-87.44H169v-50h190v-157h129zm-145-273v207H158.13l-48.79 87.47-15.11-87.47H24v-207zM136.724 215.324c0-10.139-12.257-15.214-19.425-8.046-7.168 7.168-2.093 19.426 8.046 19.426 6.285 0 11.38-5.095 11.38-11.38zm60.945 0c-.068-10.12-12.32-15.122-19.452-7.943-7.131 7.18-2.047 19.399 8.073 19.399 6.314 0 11.422-5.141 11.38-11.456zm60.945 0c0-10.139-12.257-15.214-19.425-8.046-7.169 7.168-2.093 19.426 8.046 19.426 6.284 0 11.38-5.095 11.38-11.38z" fill-opacity="1"></path></g></svg></defs>
	<rect width="103" height="160" fill="#508FC6" stroke-width="3" stroke="#000000" rx="8" />
	<text x="51.5" y="83.0" fill="#FFFFFF" font-size="56" text-anchor="middle" alignment-baseline="middle" stroke="#000000" stroke-width="0">6</text>
	<text x="2" y="20" fill="#FFFFFF" font-size="28" text-anchor="left" alignment-baseline="middle">6</text>
<use x="15" y="-62" width="20%" xlink:href="#talk" fill="#FFFFFF"/>
</svg>