<svg viewBox="0 0 103 160" xmlns="http://www.w3.org/2000/svg" xmlns:xlink="http://www.w3.org/1999/xlink">
<defs>
<svg id="talk" xmlns="http://www.w3.org/2000/svg" viewBox="0 0 512 512" style="height: 512px; width: 512px;"><g class="" transform="translate(0,0)" style=""><path d="M488 348.78h-70.24l-15.1 87.44-48.78-87.44H169v-50h190v-157h129zm-145-273v207H158.13l-48.79 87.47-15.11-87.47H24v-207zM136.724 215.324c0-10.139-12.257-15.214-19.425-8.046-7.168 7.168-2.093 19.426 8.046 19.426 6.285 0 11.38-5.095 11.38-11.38zm60.945 0c-.068-10.12-12.32-15.122-19.452-7.943-7.131 7.18-2.047 19.399 8.073 19.399 6.314 0 11.422-5.141 11.38-11.456zm60.945 0c0-10.139-12.257-15.214-19.425-8.046-7.169 7.168-2.093 19.426 8.046 19.426 6.284 0 11.38-5.095 11.38-11.38z" fill-opacity="1"></path></g></svg><svg id="magnifying-glass" xmlns="http://www.w3.org/2000/svg" viewBox="0 0 512 512" style="height: 512px; width: 512px;"><g class="" transform="translate(0,0)" style=""><path d="M333.78 20.188c-39.97 0-79.96 15.212-110.405 45.656-58.667 58.667-60.796 152.72-6.406 213.97l-15.782 15.748 13.25 13.25 15.75-15.78c61.248 54.39 155.3 52.26 213.968-6.407 60.887-60.886 60.888-159.894 0-220.78C413.713 35.4 373.753 20.187 333.78 20.187zm0 18.562c35.15 0 70.285 13.44 97.158 40.313 53.745 53.745 53.744 140.6 0 194.343-51.526 51.526-133.46 53.643-187.5 6.375l.218-.217c-2.35-2.05-4.668-4.17-6.906-6.407-2.207-2.206-4.288-4.496-6.313-6.812l-.218.22c-47.27-54.04-45.152-135.976 6.374-187.502C263.467 52.19 298.63 38.75 333.78 38.75zm0 18.813c-30.31 0-60.63 11.6-83.81 34.78-46.362 46.362-46.362 121.234 0 167.594 10.14 10.142 21.632 18.077 33.905 23.782-24.91-19.087-40.97-49.133-40.97-82.94 0-15.323 3.292-29.888 9.22-43-4.165 20.485.44 40.88 14.47 54.907 24.583 24.585 68.744 20.318 98.624-9.562 29.88-29.88 34.146-74.04 9.56-98.625-2.375-2.376-4.943-4.473-7.655-6.313 45.13 8.648 79.954 46.345 84.25 92.876 4.44-35.07-6.82-71.726-33.813-98.72-23.18-23.18-53.47-34.78-83.78-34.78zM176.907 297.688L42.094 432.5l34.562 34.563L211.47 332.25l-34.564-34.563zM40 456.813L24 472.78 37.22 486l15.968-16L40 456.812z" fill-opacity="1"></path></g></svg></defs>
	<rect stroke="black" stroke-width="3" width="103" x="0" y="60.0" height="40" fill="black" />
	<rect width="103" height="80.0" fill="#508FC6" stroke-width="3" stroke="#000000" rx="8" />
	<rect width="103" y="80.0" height="80.0" fill="#97BE49" stroke-width="3" stroke="#000000" rx="8" />
	<text x="51.5" y="83.0" fill="#FFFFFF" font-size="56" text-anchor="middle" alignment-baseline="middle" stroke="#000000" stroke-width="0">2</text>
	<text x="2" y="20" fill="#FFFFFF" font-size="28" text-anchor="left" alignment-baseline="middle">2</text>
<use x="15" y="-62" width="20%" xlink:href="#talk" fill="#FFFFFF"/>
	<text x="2" y="100" fill="#FFFFFF" font-size="28" text-anchor="left" alignment-baseline="middle">2</text>
<use x="15" y="18" width="20%" xlink:href="#magnifying-glass" fill="#FFFFFF"/>
</svg>