<svg viewBox="0 0 103 160" xmlns="http://www.w3.org/2000/svg" xmlns:xlink="http://www.w3.org/1999/xlink">
<defs>
<svg id="round-star" xmlns="http://www.w3.org/2000/svg" viewBox="0 0 512 512" style="height: 512px; width: 512px;"><g class="" transform="translate(0,0)" style="touch-action: none;"><path d="M256 38.013c-22.458 0-66.472 110.3-84.64 123.502-18.17 13.2-136.674 20.975-143.614 42.334-6.94 21.358 84.362 97.303 91.302 118.662 6.94 21.36-22.286 136.465-4.116 149.665 18.17 13.2 118.61-50.164 141.068-50.164 22.458 0 122.9 63.365 141.068 50.164 18.17-13.2-11.056-128.306-4.116-149.665 6.94-21.36 98.242-97.304 91.302-118.663-6.94-21.36-125.444-29.134-143.613-42.335-18.168-13.2-62.182-123.502-84.64-123.502z" fill-opacity="1"></path></g></svg></defs>
	<rect width="103" height="160" fill="#FFFFFF" stroke-width="3" stroke="#000000" rx="8" />
	<text x="2" y="20" fill="#CF4F3D" font-size="32" text-anchor="left" alignment-baseline="middle">5</text>
	<text x="51.5" y="85.0" fill="#CF4F3D" font-size="64" text-anchor="middle" alignment-baseline="middle">5</text>
<use x="3" y="-40" width="15%" xlink:href="#round-star" fill="#CF4F3D"/>
</svg>