<svg viewBox="0 0 103 160" xmlns="http://www.w3.org/2000/svg" xmlns:xlink="http://www.w3.org/1999/xlink">
<defs>
<svg id="swords-power" xmlns="http://www.w3.org/2000/svg" viewBox="0 0 512 512" style="height: 512px; width: 512px;"><g class="" transform="translate(0,0)" style="touch-action: none;"><path d="M105.7 41.16l-47.03 1.31 29.3 36.85L116 69.13zm300.6 0L396 69.14l28 10.2 29.3-36.86zm-278.4 8.18L139 79.87l-30.5 11.14L370.7 213.1l19.4-41.6zm256.2 0l-106.7 49.7 54.4 25.36 71.7-33.38L373 79.88zM180.2 144.3l-58.3 27.2 19.4 41.6 93.3-43.4zm241.1 2.8l-49.2 105.5 13 14.9 55.9-120zm-330.63.1l-19.6.4 55.83 119.8 12.9-14.8zm349.43 44.7l-30.6 65.6-34 84.7-55.8 33.3c-3.1 7.3-6.8 14-11.2 20C295.7 413.2 277 425 256 425s-39.7-11.8-52.5-29.5c-4.4-6.1-8.2-12.8-11.3-20.2l-55.1-33.2-27.9-70-37.13-79.7-29.5 19.4 45.5 151.8 81.23 97.1V487h174v-26.2l80.6-97.1 45.6-151.9zM256 249c-14.3 0-27.7 7.9-38 22.1-10.3 14.1-17 34.4-17 56.9s6.7 42.8 17 56.9c10.3 14.2 23.7 22.1 38 22.1s27.7-7.9 38-22.1c10.3-14.1 17-34.4 17-56.9s-6.7-42.8-17-56.9c-10.3-14.2-23.7-22.1-38-22.1z" fill-opacity="1"></path></g></svg><svg id="plain-dagger" xmlns="http://www.w3.org/2000/svg" viewBox="0 0 512 512" style="height: 512px; width: 512px;"><g class="" transform="translate(0,0)" style="touch-action: none;"><path d="M43.53 15.75c-15.73 0-28.31 12.583-28.31 28.313 0 14.086 10.092 25.644 23.5 27.906L42.687 68 68.81 41.906l2.626-2.625C69.188 25.86 57.63 15.75 43.53 15.75zm33.72 44.125l-17 17c15.885 39.37 43.45 66.684 78.75 87.406 8.167-8.585 16.65-16.898 25.438-24.936-22.488-35.103-51.535-62.294-87.188-79.47zM322.594 79.03l-51.25 4.314c-79.356 48.134-143.878 108.1-186.72 186.53l-4.31 51.47 44.155-18.656-2.94-34.094-.25-3.063 1.626-2.624c35.94-58.47 79.93-109.41 141.5-141.25l2.406-1.25 2.688.25 34.125 2.906 18.97-44.53zm-62.438 66.376c-10.008 5.886-19.5 12.338-28.562 19.313 46.688 47.93 87.208 108.588 114.72 166.5l11.248 23.717-23.718-11.28c-57.995-27.554-117.918-67.57-165.688-113.907-7.155 9.404-14.028 19.174-20.625 29.28 101.918 94.91 227.05 177.304 347.845 234.69-57.063-120.125-140.038-246.18-235.22-348.314zm-43.03 31.22c-13.37 11.703-25.72 24.58-37.282 38.436 39.36 38.452 88.085 72.83 136.687 98.844-26.054-48.633-60.754-97.847-99.405-137.28z" fill-opacity="1"></path></g></svg></defs>
	<rect width="103" height="160" fill="#FFFFFF" stroke-width="3" stroke="#000000" rx="8" />
	<text x="2" y="20" fill="#000000" font-size="32" text-anchor="left" alignment-baseline="middle">H</text>
<use x="13" y="0" width="75%" xlink:href="#swords-power" fill="#000000"/>
<use x="3" y="-40" width="15%" xlink:href="#plain-dagger" fill="#000000"/>
</svg>