<svg viewBox="0 0 103 160" xmlns="http://www.w3.org/2000/svg" xmlns:xlink="http://www.w3.org/1999/xlink">
<defs>
<svg id="swords-power" xmlns="http://www.w3.org/2000/svg" viewBox="0 0 512 512" style="height: 512px; width: 512px;"><g class="" transform="translate(0,0)" style="touch-action: none;"><path d="M105.7 41.16l-47.03 1.31 29.3 36.85L116 69.13zm300.6 0L396 69.14l28 10.2 29.3-36.86zm-278.4 8.18L139 79.87l-30.5 11.14L370.7 213.1l19.4-41.6zm256.2 0l-106.7 49.7 54.4 25.36 71.7-33.38L373 79.88zM180.2 144.3l-58.3 27.2 19.4 41.6 93.3-43.4zm241.1 2.8l-49.2 105.5 13 14.9 55.9-120zm-330.63.1l-19.6.4 55.83 119.8 12.9-14.8zm349.43 44.7l-30.6 65.6-34 84.7-55.8 33.3c-3.1 7.3-6.8 14-11.2 20C295.7 413.2 277 425 256 425s-39.7-11.8-52.5-29.5c-4.4-6.1-8.2-12.8-11.3-20.2l-55.1-33.2-27.9-70-37.13-79.7-29.5 19.4 45.5 151.8 81.23 97.1V487h174v-26.2l80.6-97.1 45.6-151.9zM256 249c-14.3 0-27.7 7.9-38 22.1-10.3 14.1-17 34.4-17 56.9s6.7 42.8 17 56.9c10.3 14.2 23.7 22.1 38 22.1s27.7-7.9 38-22.1c10.3-14.1 17-34.4 17-56.9s-6.7-42.8-17-56.9c-10.3-14.2-23.7-22.1-38-22.1z" fill-opacity="1"></path></g></svg><svg id="amethyst" xmlns="http://www.w3.org/2000/svg" viewBox="0 0 512 512" style="height: 512px; width: 512px;"><g class="" transform="translate(0,0)" style="touch-action: none;"><path d="M85.183 408.608H26V103.313h59.183v305.295zm0-373.513L35.075 85.072h50.108V35.095zM408.72 85.15V25.967H103.386v59.184H408.72zM35.075 426.849l50.108 50.11v-50.11H35.075zM476.978 85.164l-50.109-50.109v50.109h50.109zm-68.311 341.685H103.386v59.184h305.281v-59.184zm.42-323.536v305.124H103.965V103.313h305.124zm-21.91 17.098H121.062v268.482c13.152-230.342 44.059-239.548 266.115-268.482zM486 103.313h-59.183v305.295H486V103.313zm-59.183 373.619l50.108-50.109h-50.108v50.109z" fill-opacity="1"></path></g></svg></defs>
	<rect width="103" height="160" fill="#FFFFFF" stroke-width="3" stroke="#000000" rx="8" />
	<text x="2" y="20" fill="#95C990" font-size="32" text-anchor="left" alignment-baseline="middle">H</text>
<use x="13" y="0" width="75%" xlink:href="#swords-power" fill="#95C990"/>
<use x="3" y="-40" width="15%" xlink:href="#amethyst" fill="#95C990"/>
</svg>