<svg viewBox="0 0 103 160" xmlns="http://www.w3.org/2000/svg" xmlns:xlink="http://www.w3.org/1999/xlink">
<defs>
<svg id="cat" xmlns="http://www.w3.org/2000/svg" viewBox="0 0 512 512" style="height: 512px; width: 512px;"><g class="" transform="translate(0,0)" style="touch-action: none;"><path d="M463.46 37.008l-30.694 50.738-7.043-2.28c-27.146-8.797-71.525-7.15-97.6.11L321.22 87.5l-28.68-48.543c-33.63 69.254-32.264 117.56-14.79 148.574 18.71 33.208 57.378 49.09 99.117 48.574 48.743-.606 88.968-19.665 107.035-54.194 16.918-32.332 15.684-80.456-20.443-144.902zM323.935 137.594c18.45.1 29.36 15.338 31.462 36.644-37.11 17.91-53.963 3.398-61.173-26.545 11.382-7.063 21.324-10.144 29.71-10.1zm109.26 0c8.385-.045 18.328 3.036 29.71 10.1-7.21 29.942-24.064 44.454-61.174 26.544 2.104-21.306 13.014-36.545 31.463-36.644zm-293.553 50.96c-1.226-.01-2.446-.003-3.66.018-30.175.536-56.142 10.59-75.743 26.574-43.444 35.43-57.27 100.752-12.824 166.192 20.293 33.995 44.432 54.24 70.797 64.187 32.85 12.395 66.655 8.823 99.94 4.114 33.284-4.71 65.854-10.63 96.896-8.42 31.04 2.212 62.09 10.18 90.505 41.165 19.374 21.125 46.887-1.627 23.82-24.156-35.024-34.207-72.527-47.42-109.377-50.04-36.85-2.62-72.2 4.698-104.207 9.228-32.007 4.53-60.272 6.552-84.558-2.61-14.39-5.43-28.308-14.802-41.55-31.142h351.744c13.673-52.293 14.867-106.368 1.873-142.072-19.765 8.49-42.412 12.9-66.2 13.197h-.002c-29.85.37-59.458-6.925-82.907-22.823-4.647 3.012-9.407 6.23-14.292 9.685l-5.734 4.057-5.49-4.382c-46.63-37.2-91.028-52.48-129.03-52.773z" fill-opacity="1"></path></g></svg><svg id="pagoda" xmlns="http://www.w3.org/2000/svg" viewBox="0 0 512 512" style="height: 512px; width: 512px;"><g class="" transform="translate(0,0)" style="touch-action: none;"><path d="M255.967 23.386c19.704 15.157 49.792 21.65 82.52 27.105 21.419 3.57 43.864 6.501 65.163 9.832-7.28 1.686-14.641 3.4-21.609 4.97-21.25 4.789-41 8.38-45.967 8.321H175.8l-.168.006c-4.61.172-24.44-3.34-45.662-8.181-7.035-1.605-14.48-3.364-21.842-5.09 21.346-3.342 43.848-6.279 65.32-9.858 32.727-5.454 62.815-11.948 82.52-27.105zm55 67.228v16h-110v-16zm3.394 34a24.977 24.977 0 0 0 4.563 4.28c3.799 2.763 8.317 4.922 13.701 7.076 10.768 4.307 24.987 8.332 41.158 12.375 18.612 4.653 39.434 9.269 60.069 13.865l-50.182 8.404H128.71l-50.54-8.424c20.606-4.59 41.396-9.2 59.98-13.845 16.172-4.043 30.39-8.068 41.159-12.375 5.384-2.154 9.902-4.313 13.7-7.076a24.977 24.977 0 0 0 4.563-4.28zm28.606 62v30h-46v-30zm-64 0v30h-46v-30zm-64 0v30h-46v-30zm131.123 48c1.246 1.65 2.68 3.113 4.156 4.422 3.592 3.184 8.04 6.026 13.383 8.965 10.686 5.877 24.947 11.954 41.178 18.041 20.082 7.531 43.024 14.894 65.33 21.42l-54.914 9.152H96.263l-54.533-9.133c22.327-6.53 45.294-13.9 65.397-21.439 16.23-6.087 30.492-12.164 41.178-18.041 5.343-2.939 9.79-5.781 13.382-8.965 1.477-1.309 2.91-2.772 4.157-4.422zm28.877 80v30h-238v-30zm3.123 48c1.246 1.65 2.68 3.113 4.156 4.422 3.592 3.184 8.04 6.026 13.383 8.965 10.686 5.877 24.947 11.954 41.178 18.041 20.102 7.539 43.07 14.909 65.396 21.44l-54.533 9.132H64.71l-54.913-9.152c22.305-6.526 45.247-13.889 65.33-21.42 16.23-6.087 30.492-12.164 41.178-18.041 5.343-2.939 9.79-5.781 13.382-8.965 1.477-1.309 2.91-2.772 4.157-4.422zm60.877 80v46h-142v-46zm-160 0v46h-46v-46zm-64 0v46h-142v-46z" fill-opacity="1"></path></g></svg></defs>
	<rect width="103" height="160" fill="#FFFFFF" stroke-width="3" stroke="#000000" rx="8" />
	<text x="2" y="20" fill="#0000FF" font-size="32" text-anchor="left" alignment-baseline="middle">11</text>
	<text x="2" y="150" fill="#000000" font-size="16" text-anchor="left" alignment-baseline="middle">+5</text>
<use x="13" y="0" width="75%" xlink:href="#cat" fill="#0000FF"/>
<use x="3" y="-40" width="15%" xlink:href="#pagoda" fill="#0000FF"/>
</svg>