<svg viewBox="0 0 103 160" xmlns="http://www.w3.org/2000/svg" xmlns:xlink="http://www.w3.org/1999/xlink">
<defs>
<svg id="cat" xmlns="http://www.w3.org/2000/svg" viewBox="0 0 512 512" style="height: 512px; width: 512px;"><g class="" transform="translate(0,0)" style="touch-action: none;"><path d="M463.46 37.008l-30.694 50.738-7.043-2.28c-27.146-8.797-71.525-7.15-97.6.11L321.22 87.5l-28.68-48.543c-33.63 69.254-32.264 117.56-14.79 148.574 18.71 33.208 57.378 49.09 99.117 48.574 48.743-.606 88.968-19.665 107.035-54.194 16.918-32.332 15.684-80.456-20.443-144.902zM323.935 137.594c18.45.1 29.36 15.338 31.462 36.644-37.11 17.91-53.963 3.398-61.173-26.545 11.382-7.063 21.324-10.144 29.71-10.1zm109.26 0c8.385-.045 18.328 3.036 29.71 10.1-7.21 29.942-24.064 44.454-61.174 26.544 2.104-21.306 13.014-36.545 31.463-36.644zm-293.553 50.96c-1.226-.01-2.446-.003-3.66.018-30.175.536-56.142 10.59-75.743 26.574-43.444 35.43-57.27 100.752-12.824 166.192 20.293 33.995 44.432 54.24 70.797 64.187 32.85 12.395 66.655 8.823 99.94 4.114 33.284-4.71 65.854-10.63 96.896-8.42 31.04 2.212 62.09 10.18 90.505 41.165 19.374 21.125 46.887-1.627 23.82-24.156-35.024-34.207-72.527-47.42-109.377-50.04-36.85-2.62-72.2 4.698-104.207 9.228-32.007 4.53-60.272 6.552-84.558-2.61-14.39-5.43-28.308-14.802-41.55-31.142h351.744c13.673-52.293 14.867-106.368 1.873-142.072-19.765 8.49-42.412 12.9-66.2 13.197h-.002c-29.85.37-59.458-6.925-82.907-22.823-4.647 3.012-9.407 6.23-14.292 9.685l-5.734 4.057-5.49-4.382c-46.63-37.2-91.028-52.48-129.03-52.773z" fill-opacity="1"></path></g></svg><svg id="round-star" xmlns="http://www.w3.org/2000/svg" viewBox="0 0 512 512" style="height: 512px; width: 512px;"><g class="" transform="translate(0,0)" style="touch-action: none;"><path d="M256 38.013c-22.458 0-66.472 110.3-84.64 123.502-18.17 13.2-136.674 20.975-143.614 42.334-6.94 21.358 84.362 97.303 91.302 118.662 6.94 21.36-22.286 136.465-4.116 149.665 18.17 13.2 118.61-50.164 141.068-50.164 22.458 0 122.9 63.365 141.068 50.164 18.17-13.2-11.056-128.306-4.116-149.665 6.94-21.36 98.242-97.304 91.302-118.663-6.94-21.36-125.444-29.134-143.613-42.335-18.168-13.2-62.182-123.502-84.64-123.502z" fill-opacity="1"></path></g></svg></defs>
	<rect width="103" height="160" fill="#FFFFFF" stroke-width="3" stroke="#000000" rx="8" />
	<text x="2" y="20" fill="#97151C" font-size="32" text-anchor="left" alignment-baseline="middle">11</text>
	<text x="2" y="150" fill="#000000" font-size="16" text-anchor="left" alignment-baseline="middle">+5</text>
<use x="13" y="0" width="75%" xlink:href="#cat" fill="#97151C"/>
<use x="3" y="-40" width="15%" xlink:href="#round-star" fill="#97151C"/>
</svg>