<svg viewBox="0 0 103 160" xmlns="http://www.w3.org/2000/svg" xmlns:xlink="http://www.w3.org/1999/xlink">
<defs>
<svg id="swords-power" xmlns="http://www.w3.org/2000/svg" viewBox="0 0 512 512" style="height: 512px; width: 512px;"><g class="" transform="translate(0,0)" style="touch-action: none;"><path d="M105.7 41.16l-47.03 1.31 29.3 36.85L116 69.13zm300.6 0L396 69.14l28 10.2 29.3-36.86zm-278.4 8.18L139 79.87l-30.5 11.14L370.7 213.1l19.4-41.6zm256.2 0l-106.7 49.7 54.4 25.36 71.7-33.38L373 79.88zM180.2 144.3l-58.3 27.2 19.4 41.6 93.3-43.4zm241.1 2.8l-49.2 105.5 13 14.9 55.9-120zm-330.63.1l-19.6.4 55.83 119.8 12.9-14.8zm349.43 44.7l-30.6 65.6-34 84.7-55.8 33.3c-3.1 7.3-6.8 14-11.2 20C295.7 413.2 277 425 256 425s-39.7-11.8-52.5-29.5c-4.4-6.1-8.2-12.8-11.3-20.2l-55.1-33.2-27.9-70-37.13-79.7-29.5 19.4 45.5 151.8 81.23 97.1V487h174v-26.2l80.6-97.1 45.6-151.9zM256 249c-14.3 0-27.7 7.9-38 22.1-10.3 14.1-17 34.4-17 56.9s6.7 42.8 17 56.9c10.3 14.2 23.7 22.1 38 22.1s27.7-7.9 38-22.1c10.3-14.1 17-34.4 17-56.9s-6.7-42.8-17-56.9c-10.3-14.2-23.7-22.1-38-22.1z" fill-opacity="1"></path></g></svg><svg id="round-star" xmlns="http://www.w3.org/2000/svg" viewBox="0 0 512 512" style="height: 512px; width: 512px;"><g class="" transform="translate(0,0)" style="touch-action: none;"><path d="M256 38.013c-22.458 0-66.472 110.3-84.64 123.502-18.17 13.2-136.674 20.975-143.614 42.334-6.94 21.358 84.362 97.303 91.302 118.662 6.94 21.36-22.286 136.465-4.116 149.665 18.17 13.2 118.61-50.164 141.068-50.164 22.458 0 122.9 63.365 141.068 50.164 18.17-13.2-11.056-128.306-4.116-149.665 6.94-21.36 98.242-97.304 91.302-118.663-6.94-21.36-125.444-29.134-143.613-42.335-18.168-13.2-62.182-123.502-84.64-123.502z" fill-opacity="1"></path></g></svg></defs>
	<rect width="103" height="160" fill="#FFFFFF" stroke-width="3" stroke="#000000" rx="8" />
	<text x="2" y="20" fill="#CF4F3D" font-size="32" text-anchor="left" alignment-baseline="middle">H</text>
<use x="13" y="0" width="75%" xlink:href="#swords-power" fill="#CF4F3D"/>
<use x="3" y="-40" width="15%" xlink:href="#round-star" fill="#CF4F3D"/>
</svg>