<svg viewBox="0 0 103 160" xmlns="http://www.w3.org/2000/svg" xmlns:xlink="http://www.w3.org/1999/xlink">
<defs>
<svg id="swords-power" xmlns="http://www.w3.org/2000/svg" viewBox="0 0 512 512" style="height: 512px; width: 512px;"><g class="" transform="translate(0,0)" style="touch-action: none;"><path d="M105.7 41.16l-47.03 1.31 29.3 36.85L116 69.13zm300.6 0L396 69.14l28 10.2 29.3-36.86zm-278.4 8.18L139 79.87l-30.5 11.14L370.7 213.1l19.4-41.6zm256.2 0l-106.7 49.7 54.4 25.36 71.7-33.38L373 79.88zM180.2 144.3l-58.3 27.2 19.4 41.6 93.3-43.4zm241.1 2.8l-49.2 105.5 13 14.9 55.9-120zm-330.63.1l-19.6.4 55.83 119.8 12.9-14.8zm349.43 44.7l-30.6 65.6-34 84.7-55.8 33.3c-3.1 7.3-6.8 14-11.2 20C295.7 413.2 277 425 256 425s-39.7-11.8-52.5-29.5c-4.4-6.1-8.2-12.8-11.3-20.2l-55.1-33.2-27.9-70-37.13-79.7-29.5 19.4 45.5 151.8 81.23 97.1V487h174v-26.2l80.6-97.1 45.6-151.9zM256 249c-14.3 0-27.7 7.9-38 22.1-10.3 14.1-17 34.4-17 56.9s6.7 42.8 17 56.9c10.3 14.2 23.7 22.1 38 22.1s27.7-7.9 38-22.1c10.3-14.1 17-34.4 17-56.9s-6.7-42.8-17-56.9c-10.3-14.2-23.7-22.1-38-22.1z" fill-opacity="1"></path></g></svg><svg id="pagoda" xmlns="http://www.w3.org/2000/svg" viewBox="0 0 512 512" style="height: 512px; width: 512px;"><g class="" transform="translate(0,0)" style="touch-action: none;"><path d="M255.967 23.386c19.704 15.157 49.792 21.65 82.52 27.105 21.419 3.57 43.864 6.501 65.163 9.832-7.28 1.686-14.641 3.4-21.609 4.97-21.25 4.789-41 8.38-45.967 8.321H175.8l-.168.006c-4.61.172-24.44-3.34-45.662-8.181-7.035-1.605-14.48-3.364-21.842-5.09 21.346-3.342 43.848-6.279 65.32-9.858 32.727-5.454 62.815-11.948 82.52-27.105zm55 67.228v16h-110v-16zm3.394 34a24.977 24.977 0 0 0 4.563 4.28c3.799 2.763 8.317 4.922 13.701 7.076 10.768 4.307 24.987 8.332 41.158 12.375 18.612 4.653 39.434 9.269 60.069 13.865l-50.182 8.404H128.71l-50.54-8.424c20.606-4.59 41.396-9.2 59.98-13.845 16.172-4.043 30.39-8.068 41.159-12.375 5.384-2.154 9.902-4.313 13.7-7.076a24.977 24.977 0 0 0 4.563-4.28zm28.606 62v30h-46v-30zm-64 0v30h-46v-30zm-64 0v30h-46v-30zm131.123 48c1.246 1.65 2.68 3.113 4.156 4.422 3.592 3.184 8.04 6.026 13.383 8.965 10.686 5.877 24.947 11.954 41.178 18.041 20.082 7.531 43.024 14.894 65.33 21.42l-54.914 9.152H96.263l-54.533-9.133c22.327-6.53 45.294-13.9 65.397-21.439 16.23-6.087 30.492-12.164 41.178-18.041 5.343-2.939 9.79-5.781 13.382-8.965 1.477-1.309 2.91-2.772 4.157-4.422zm28.877 80v30h-238v-30zm3.123 48c1.246 1.65 2.68 3.113 4.156 4.422 3.592 3.184 8.04 6.026 13.383 8.965 10.686 5.877 24.947 11.954 41.178 18.041 20.102 7.539 43.07 14.909 65.396 21.44l-54.533 9.132H64.71l-54.913-9.152c22.305-6.526 45.247-13.889 65.33-21.42 16.23-6.087 30.492-12.164 41.178-18.041 5.343-2.939 9.79-5.781 13.382-8.965 1.477-1.309 2.91-2.772 4.157-4.422zm60.877 80v46h-142v-46zm-160 0v46h-46v-46zm-64 0v46h-142v-46z" fill-opacity="1"></path></g></svg></defs>
	<rect width="103" height="160" fill="#FFFFFF" stroke-width="3" stroke="#000000" rx="8" />
	<text x="2" y="20" fill="#0000FF" font-size="32" text-anchor="left" alignment-baseline="middle">H</text>
<use x="13" y="0" width="75%" xlink:href="#swords-power" fill="#0000FF"/>
<use x="3" y="-40" width="15%" xlink:href="#pagoda" fill="#0000FF"/>
</svg>