<svg viewBox="0 0 103 160" xmlns="http://www.w3.org/2000/svg" xmlns:xlink="http://www.w3.org/1999/xlink">
<defs>
<svg id="cat" xmlns="http://www.w3.org/2000/svg" viewBox="0 0 512 512" style="height: 512px; width: 512px;"><g class="" transform="translate(0,0)" style="touch-action: none;"><path d="M463.46 37.008l-30.694 50.738-7.043-2.28c-27.146-8.797-71.525-7.15-97.6.11L321.22 87.5l-28.68-48.543c-33.63 69.254-32.264 117.56-14.79 148.574 18.71 33.208 57.378 49.09 99.117 48.574 48.743-.606 88.968-19.665 107.035-54.194 16.918-32.332 15.684-80.456-20.443-144.902zM323.935 137.594c18.45.1 29.36 15.338 31.462 36.644-37.11 17.91-53.963 3.398-61.173-26.545 11.382-7.063 21.324-10.144 29.71-10.1zm109.26 0c8.385-.045 18.328 3.036 29.71 10.1-7.21 29.942-24.064 44.454-61.174 26.544 2.104-21.306 13.014-36.545 31.463-36.644zm-293.553 50.96c-1.226-.01-2.446-.003-3.66.018-30.175.536-56.142 10.59-75.743 26.574-43.444 35.43-57.27 100.752-12.824 166.192 20.293 33.995 44.432 54.24 70.797 64.187 32.85 12.395 66.655 8.823 99.94 4.114 33.284-4.71 65.854-10.63 96.896-8.42 31.04 2.212 62.09 10.18 90.505 41.165 19.374 21.125 46.887-1.627 23.82-24.156-35.024-34.207-72.527-47.42-109.377-50.04-36.85-2.62-72.2 4.698-104.207 9.228-32.007 4.53-60.272 6.552-84.558-2.61-14.39-5.43-28.308-14.802-41.55-31.142h351.744c13.673-52.293 14.867-106.368 1.873-142.072-19.765 8.49-42.412 12.9-66.2 13.197h-.002c-29.85.37-59.458-6.925-82.907-22.823-4.647 3.012-9.407 6.23-14.292 9.685l-5.734 4.057-5.49-4.382c-46.63-37.2-91.028-52.48-129.03-52.773z" fill-opacity="1"></path></g></svg><svg id="plain-dagger" xmlns="http://www.w3.org/2000/svg" viewBox="0 0 512 512" style="height: 512px; width: 512px;"><g class="" transform="translate(0,0)" style="touch-action: none;"><path d="M43.53 15.75c-15.73 0-28.31 12.583-28.31 28.313 0 14.086 10.092 25.644 23.5 27.906L42.687 68 68.81 41.906l2.626-2.625C69.188 25.86 57.63 15.75 43.53 15.75zm33.72 44.125l-17 17c15.885 39.37 43.45 66.684 78.75 87.406 8.167-8.585 16.65-16.898 25.438-24.936-22.488-35.103-51.535-62.294-87.188-79.47zM322.594 79.03l-51.25 4.314c-79.356 48.134-143.878 108.1-186.72 186.53l-4.31 51.47 44.155-18.656-2.94-34.094-.25-3.063 1.626-2.624c35.94-58.47 79.93-109.41 141.5-141.25l2.406-1.25 2.688.25 34.125 2.906 18.97-44.53zm-62.438 66.376c-10.008 5.886-19.5 12.338-28.562 19.313 46.688 47.93 87.208 108.588 114.72 166.5l11.248 23.717-23.718-11.28c-57.995-27.554-117.918-67.57-165.688-113.907-7.155 9.404-14.028 19.174-20.625 29.28 101.918 94.91 227.05 177.304 347.845 234.69-57.063-120.125-140.038-246.18-235.22-348.314zm-43.03 31.22c-13.37 11.703-25.72 24.58-37.282 38.436 39.36 38.452 88.085 72.83 136.687 98.844-26.054-48.633-60.754-97.847-99.405-137.28z" fill-opacity="1"></path></g></svg></defs>
	<rect width="103" height="160" fill="#FFFFFF" stroke-width="3" stroke="#000000" rx="8" />
	<text x="2" y="20" fill="#000000" font-size="32" text-anchor="left" alignment-baseline="middle">11</text>
	<text x="2" y="150" fill="#000000" font-size="16" text-anchor="left" alignment-baseline="middle">+5</text>
<use x="13" y="0" width="75%" xlink:href="#cat" fill="#000000"/>
<use x="3" y="-40" width="15%" xlink:href="#plain-dagger" fill="#000000"/>
</svg>