<svg style="background-color: white" xmlns="http://www.w3.org/2000/svg" version="1.1" width="1300" height="750" viewBox="0 0 1300 750" xmlns:xlink="http://www.w3.org/1999/xlink">
<polygon style="fill: black" points="166.5,139.9519052838329 129.5,204.03778516388135 55.5,204.03778516388135 18.5,139.9519052838329 55.5,75.86602540378445 129.5,75.86602540378445"></polygon>
<polygon style="fill: tan" points="165.5,139.9519052838329 129.0,203.1717597600969 56.0,203.1717597600969 19.5,139.9519052838329 56.0,76.73205080756888 129.0,76.73205080756888"></polygon>
<polygon style="fill: black" points="391.5,139.9519052838329 354.5,204.03778516388135 280.5,204.03778516388135 243.5,139.9519052838329 280.5,75.86602540378445 354.5,75.86602540378445"></polygon>
<polygon style="fill: tan" points="390.5,139.9519052838329 354.0,203.1717597600969 281.0,203.1717597600969 244.5,139.9519052838329 281.0,76.73205080756888 354.0,76.73205080756888"></polygon>
<polygon style="fill: black" points="841.5,139.9519052838329 804.5,204.03778516388135 730.5,204.03778516388135 693.5,139.9519052838329 730.5,75.86602540378445 804.5,75.86602540378445"></polygon>
<polygon style="fill: white" points="840.5,139.9519052838329 804.0,203.1717597600969 731.0,203.1717597600969 694.5,139.9519052838329 731.0,76.73205080756888 804.0,76.73205080756888"></polygon>
	<text fill="black" font-size="24px" x="767.5" y="102.9519052838329" text-anchor="middle" alignment-baseline="middle">Badajoz</text>
<polygon style="fill: black" points="1291.5,139.9519052838329 1254.5,204.03778516388135 1180.5,204.03778516388135 1143.5,139.9519052838329 1180.5,75.86602540378445 1254.5,75.86602540378445"></polygon>
<polygon style="fill: white" points="1290.5,139.9519052838329 1254.0,203.1717597600969 1181.0,203.1717597600969 1144.5,139.9519052838329 1181.0,76.73205080756888 1254.0,76.73205080756888"></polygon>
	<text fill="black" font-size="24px" x="1217.5" y="102.9519052838329" text-anchor="middle" alignment-baseline="middle"></text>
<polygon style="fill: black" points="166.5,269.8557158514987 129.5,333.9415957315472 55.5,333.9415957315472 18.5,269.8557158514987 55.5,205.76983597145025 129.5,205.76983597145025"></polygon>
<polygon style="fill: tan" points="165.5,269.8557158514987 129.0,333.0755703277627 56.0,333.0755703277627 19.5,269.8557158514987 56.0,206.6358613752347 129.0,206.6358613752347"></polygon>
	<circle fill="black" cx="92.5" cy="269.8557158514987" r="14"/>	<circle fill="none" stroke-width="2" stroke-dasharray="5 5" stroke="black" cx="92.5" cy="269.8557158514987" r="20"/><polygon style="fill: black" points="279.0,204.9038105676658 242.0,268.9896904477142 168.0,268.9896904477142 131.0,204.9038105676658 168.0,140.81793068761735 242.0,140.81793068761735"></polygon>
<polygon style="fill: tan" points="278.0,204.9038105676658 241.5,268.1236650439298 168.5,268.1236650439298 132.0,204.9038105676658 168.5,141.6839560914018 241.5,141.6839560914018"></polygon>
<polygon style="fill: black" points="391.5,269.8557158514987 354.5,333.9415957315472 280.5,333.9415957315472 243.5,269.8557158514987 280.5,205.76983597145025 354.5,205.76983597145025"></polygon>
<polygon style="fill: tan" points="390.5,269.8557158514987 354.0,333.0755703277627 281.0,333.0755703277627 244.5,269.8557158514987 281.0,206.6358613752347 354.0,206.6358613752347"></polygon>
	<text fill="black" font-size="24px" x="317.5" y="232.8557158514987" text-anchor="middle" alignment-baseline="middle">Guarda</text>
	<circle fill="white" stroke="black" cx="317.5" cy="289.8557158514987" r="23"/>	<circle fill="white" stroke="black" cx="317.5" cy="289.8557158514987" r="21"/><polygon style="fill: black" points="504.0,204.9038105676658 467.0,268.9896904477142 393.0,268.9896904477142 356.0,204.9038105676658 393.0,140.81793068761735 467.0,140.81793068761735"></polygon>
<polygon style="fill: #D5E1C8" points="503.0,204.9038105676658 466.5,268.1236650439298 393.5,268.1236650439298 357.0,204.9038105676658 393.5,141.6839560914018 466.5,141.6839560914018"></polygon>
<polygon style="fill: black" points="616.5,269.8557158514987 579.5,333.9415957315472 505.5,333.9415957315472 468.5,269.8557158514987 505.5,205.76983597145025 579.5,205.76983597145025"></polygon>
<polygon style="fill: #D5E1C8" points="615.5,269.8557158514987 579.0,333.0755703277627 506.0,333.0755703277627 469.5,269.8557158514987 506.0,206.6358613752347 579.0,206.6358613752347"></polygon>
	<circle fill="black" cx="542.5" cy="269.8557158514987" r="14"/>	<circle fill="none" stroke-width="2" stroke-dasharray="5 5" stroke="black" cx="542.5" cy="269.8557158514987" r="20"/><polygon style="fill: black" points="729.0,204.9038105676658 692.0,268.9896904477142 618.0,268.9896904477142 581.0,204.9038105676658 618.0,140.81793068761735 692.0,140.81793068761735"></polygon>
<polygon style="fill: tan" points="728.0,204.9038105676658 691.5,268.1236650439298 618.5,268.1236650439298 582.0,204.9038105676658 618.5,141.6839560914018 691.5,141.6839560914018"></polygon>
	<circle fill="black" cx="655.0" cy="204.9038105676658" r="14"/>	<circle fill="none" stroke-width="2" stroke-dasharray="5 5" stroke="black" cx="655.0" cy="204.9038105676658" r="20"/><polygon style="fill: black" points="841.5,269.8557158514987 804.5,333.9415957315472 730.5,333.9415957315472 693.5,269.8557158514987 730.5,205.76983597145025 804.5,205.76983597145025"></polygon>
<polygon style="fill: #D5E1C8" points="840.5,269.8557158514987 804.0,333.0755703277627 731.0,333.0755703277627 694.5,269.8557158514987 731.0,206.6358613752347 804.0,206.6358613752347"></polygon>
	<circle fill="black" cx="767.5" cy="269.8557158514987" r="14"/>	<circle fill="none" stroke-width="2" stroke-dasharray="5 5" stroke="black" cx="767.5" cy="269.8557158514987" r="20"/><polygon style="fill: black" points="1066.5,269.8557158514987 1029.5,333.9415957315472 955.5,333.9415957315472 918.5,269.8557158514987 955.5,205.76983597145025 1029.5,205.76983597145025"></polygon>
<polygon style="fill: #D5E1C8" points="1065.5,269.8557158514987 1029.0,333.0755703277627 956.0,333.0755703277627 919.5,269.8557158514987 956.0,206.6358613752347 1029.0,206.6358613752347"></polygon>
	<circle fill="black" cx="992.5" cy="269.8557158514987" r="14"/>	<circle fill="none" stroke-width="2" stroke-dasharray="5 5" stroke="black" cx="992.5" cy="269.8557158514987" r="20"/><polygon style="fill: black" points="1291.5,269.8557158514987 1254.5,333.9415957315472 1180.5,333.9415957315472 1143.5,269.8557158514987 1180.5,205.76983597145025 1254.5,205.76983597145025"></polygon>
<polygon style="fill: #D5E1C8" points="1290.5,269.8557158514987 1254.0,333.0755703277627 1181.0,333.0755703277627 1144.5,269.8557158514987 1181.0,206.6358613752347 1254.0,206.6358613752347"></polygon>
	<text fill="black" font-size="24px" x="1217.5" y="232.8557158514987" text-anchor="middle" alignment-baseline="middle">Vila Real</text>
	<circle fill="white" stroke="black" cx="1217.5" cy="289.8557158514987" r="23"/>	<circle fill="white" stroke="black" cx="1217.5" cy="289.8557158514987" r="21"/><polygon style="fill: black" points="166.5,399.7595264191645 129.5,463.845406299213 55.5,463.845406299213 18.5,399.7595264191645 55.5,335.673646539116 129.5,335.673646539116"></polygon>
<polygon style="fill: #D5E1C8" points="165.5,399.7595264191645 129.0,462.9793808954285 56.0,462.9793808954285 19.5,399.7595264191645 56.0,336.5396719429005 129.0,336.5396719429005"></polygon>
	<circle fill="black" cx="92.5" cy="399.7595264191645" r="14"/>	<circle fill="none" stroke-width="2" stroke-dasharray="5 5" stroke="black" cx="92.5" cy="399.7595264191645" r="20"/><polygon style="fill: black" points="279.0,334.8076211353316 242.0,398.89350101538 168.0,398.89350101538 131.0,334.8076211353316 168.0,270.7217412552832 242.0,270.7217412552832"></polygon>
<polygon style="fill: tan" points="278.0,334.8076211353316 241.5,398.0274756115956 168.5,398.0274756115956 132.0,334.8076211353316 168.5,271.5877666590676 241.5,271.5877666590676"></polygon>
	<circle fill="black" cx="205.0" cy="334.8076211353316" r="14"/>	<circle fill="none" stroke-width="2" stroke-dasharray="5 5" stroke="black" cx="205.0" cy="334.8076211353316" r="20"/><polygon style="fill: black" points="391.5,399.7595264191645 354.5,463.845406299213 280.5,463.845406299213 243.5,399.7595264191645 280.5,335.673646539116 354.5,335.673646539116"></polygon>
<polygon style="fill: #D5E1C8" points="390.5,399.7595264191645 354.0,462.9793808954285 281.0,462.9793808954285 244.5,399.7595264191645 281.0,336.5396719429005 354.0,336.5396719429005"></polygon>
<polygon style="fill: black" points="504.0,334.8076211353316 467.0,398.89350101538 393.0,398.89350101538 356.0,334.8076211353316 393.0,270.7217412552832 467.0,270.7217412552832"></polygon>
<polygon style="fill: tan" points="503.0,334.8076211353316 466.5,398.0274756115956 393.5,398.0274756115956 357.0,334.8076211353316 393.5,271.5877666590676 466.5,271.5877666590676"></polygon>
<polygon style="fill: black" points="616.5,399.7595264191645 579.5,463.845406299213 505.5,463.845406299213 468.5,399.7595264191645 505.5,335.673646539116 579.5,335.673646539116"></polygon>
<polygon style="fill: tan" points="615.5,399.7595264191645 579.0,462.9793808954285 506.0,462.9793808954285 469.5,399.7595264191645 506.0,336.5396719429005 579.0,336.5396719429005"></polygon>
	<text fill="black" font-size="24px" x="542.5" y="362.7595264191645" text-anchor="middle" alignment-baseline="middle">Abrantes</text>
	<circle fill="white" stroke="black" cx="515.5" cy="419.7595264191645" r="23"/>	<circle fill="white" stroke="black" cx="515.5" cy="419.7595264191645" r="21"/>	<circle fill="white" stroke="black" cx="569.5" cy="419.7595264191645" r="23"/>	<circle fill="white" stroke="black" cx="569.5" cy="419.7595264191645" r="21"/><polygon style="fill: black" points="729.0,334.8076211353316 692.0,398.89350101538 618.0,398.89350101538 581.0,334.8076211353316 618.0,270.7217412552832 692.0,270.7217412552832"></polygon>
<polygon style="fill: #D5E1C8" points="728.0,334.8076211353316 691.5,398.0274756115956 618.5,398.0274756115956 582.0,334.8076211353316 618.5,271.5877666590676 691.5,271.5877666590676"></polygon>
<polygon style="fill: black" points="841.5,399.7595264191645 804.5,463.845406299213 730.5,463.845406299213 693.5,399.7595264191645 730.5,335.673646539116 804.5,335.673646539116"></polygon>
<polygon style="fill: #D5E1C8" points="840.5,399.7595264191645 804.0,462.9793808954285 731.0,462.9793808954285 694.5,399.7595264191645 731.0,336.5396719429005 804.0,336.5396719429005"></polygon>
<polygon style="fill: black" points="954.0,334.8076211353316 917.0,398.89350101538 843.0,398.89350101538 806.0,334.8076211353316 843.0,270.7217412552832 917.0,270.7217412552832"></polygon>
<polygon style="fill: tan" points="953.0,334.8076211353316 916.5,398.0274756115956 843.5,398.0274756115956 807.0,334.8076211353316 843.5,271.5877666590676 916.5,271.5877666590676"></polygon>
	<circle fill="black" cx="880.0" cy="334.8076211353316" r="14"/>	<circle fill="none" stroke-width="2" stroke-dasharray="5 5" stroke="black" cx="880.0" cy="334.8076211353316" r="20"/><polygon style="fill: black" points="1066.5,399.7595264191645 1029.5,463.845406299213 955.5,463.845406299213 918.5,399.7595264191645 955.5,335.673646539116 1029.5,335.673646539116"></polygon>
<polygon style="fill: #D5E1C8" points="1065.5,399.7595264191645 1029.0,462.9793808954285 956.0,462.9793808954285 919.5,399.7595264191645 956.0,336.5396719429005 1029.0,336.5396719429005"></polygon>
	<text fill="black" font-size="24px" x="992.5" y="362.7595264191645" text-anchor="middle" alignment-baseline="middle">Beja</text>
	<circle fill="white" stroke="black" cx="992.5" cy="419.7595264191645" r="23"/>	<circle fill="white" stroke="black" cx="992.5" cy="419.7595264191645" r="21"/><polygon style="fill: black" points="1179.0,334.8076211353316 1142.0,398.89350101538 1068.0,398.89350101538 1031.0,334.8076211353316 1068.0,270.7217412552832 1142.0,270.7217412552832"></polygon>
<polygon style="fill: #D5E1C8" points="1178.0,334.8076211353316 1141.5,398.0274756115956 1068.5,398.0274756115956 1032.0,334.8076211353316 1068.5,271.5877666590676 1141.5,271.5877666590676"></polygon>
<polygon style="fill: black" points="1291.5,399.7595264191645 1254.5,463.845406299213 1180.5,463.845406299213 1143.5,399.7595264191645 1180.5,335.673646539116 1254.5,335.673646539116"></polygon>
<polygon style="fill: #D5E1C8" points="1290.5,399.7595264191645 1254.0,462.9793808954285 1181.0,462.9793808954285 1144.5,399.7595264191645 1181.0,336.5396719429005 1254.0,336.5396719429005"></polygon>
	<circle fill="black" cx="1217.5" cy="399.7595264191645" r="14"/>	<circle fill="none" stroke-width="2" stroke-dasharray="5 5" stroke="black" cx="1217.5" cy="399.7595264191645" r="20"/><polygon style="fill: black" points="166.5,529.6633369868302 129.5,593.7492168668787 55.5,593.7492168668787 18.5,529.6633369868302 55.5,465.5774571067818 129.5,465.5774571067818"></polygon>
<polygon style="fill: #D5E1C8" points="165.5,529.6633369868302 129.0,592.8831914630942 56.0,592.8831914630942 19.5,529.6633369868302 56.0,466.44348251056624 129.0,466.44348251056624"></polygon>
	<text fill="black" font-size="24px" x="92.5" y="492.66333698683025" text-anchor="middle" alignment-baseline="middle">Porto</text>
	<circle fill="white" stroke="black" cx="65.5" cy="549.6633369868302" r="23"/>	<circle fill="white" stroke="black" cx="65.5" cy="549.6633369868302" r="21"/>	<circle fill="white" stroke="black" cx="119.5" cy="549.6633369868302" r="23"/>	<circle fill="white" stroke="black" cx="119.5" cy="549.6633369868302" r="21"/><polygon style="fill: black" points="279.0,464.7114317029974 242.0,528.7973115830458 168.0,528.7973115830458 131.0,464.7114317029974 168.0,400.625551822949 242.0,400.625551822949"></polygon>
<polygon style="fill: tan" points="278.0,464.7114317029974 241.5,527.9312861792614 168.5,527.9312861792614 132.0,464.7114317029974 168.5,401.4915772267334 241.5,401.4915772267334"></polygon>
<polygon style="fill: black" points="391.5,529.6633369868302 354.5,593.7492168668787 280.5,593.7492168668787 243.5,529.6633369868302 280.5,465.5774571067818 354.5,465.5774571067818"></polygon>
<polygon style="fill: #D5E1C8" points="390.5,529.6633369868302 354.0,592.8831914630942 281.0,592.8831914630942 244.5,529.6633369868302 281.0,466.44348251056624 354.0,466.44348251056624"></polygon>
<polygon style="fill: black" points="504.0,464.7114317029974 467.0,528.7973115830458 393.0,528.7973115830458 356.0,464.7114317029974 393.0,400.625551822949 467.0,400.625551822949"></polygon>
<polygon style="fill: #D5E1C8" points="503.0,464.7114317029974 466.5,527.9312861792614 393.5,527.9312861792614 357.0,464.7114317029974 393.5,401.4915772267334 466.5,401.4915772267334"></polygon>
	<circle fill="black" cx="430.0" cy="464.7114317029974" r="14"/>	<circle fill="none" stroke-width="2" stroke-dasharray="5 5" stroke="black" cx="430.0" cy="464.7114317029974" r="20"/><polygon style="fill: black" points="616.5,529.6633369868302 579.5,593.7492168668787 505.5,593.7492168668787 468.5,529.6633369868302 505.5,465.5774571067818 579.5,465.5774571067818"></polygon>
<polygon style="fill: #D5E1C8" points="615.5,529.6633369868302 579.0,592.8831914630942 506.0,592.8831914630942 469.5,529.6633369868302 506.0,466.44348251056624 579.0,466.44348251056624"></polygon>
	<circle fill="black" cx="542.5" cy="529.6633369868302" r="14"/>	<circle fill="none" stroke-width="2" stroke-dasharray="5 5" stroke="black" cx="542.5" cy="529.6633369868302" r="20"/><polygon style="fill: black" points="729.0,464.7114317029974 692.0,528.7973115830458 618.0,528.7973115830458 581.0,464.7114317029974 618.0,400.625551822949 692.0,400.625551822949"></polygon>
<polygon style="fill: #D5E1C8" points="728.0,464.7114317029974 691.5,527.9312861792614 618.5,527.9312861792614 582.0,464.7114317029974 618.5,401.4915772267334 691.5,401.4915772267334"></polygon>
<polygon style="fill: black" points="841.5,529.6633369868302 804.5,593.7492168668787 730.5,593.7492168668787 693.5,529.6633369868302 730.5,465.5774571067818 804.5,465.5774571067818"></polygon>
<polygon style="fill: #D5E1C8" points="840.5,529.6633369868302 804.0,592.8831914630942 731.0,592.8831914630942 694.5,529.6633369868302 731.0,466.44348251056624 804.0,466.44348251056624"></polygon>
<polygon style="fill: black" points="954.0,464.7114317029974 917.0,528.7973115830458 843.0,528.7973115830458 806.0,464.7114317029974 843.0,400.625551822949 917.0,400.625551822949"></polygon>
<polygon style="fill: #D5E1C8" points="953.0,464.7114317029974 916.5,527.9312861792614 843.5,527.9312861792614 807.0,464.7114317029974 843.5,401.4915772267334 916.5,401.4915772267334"></polygon>
	<circle fill="black" cx="880.0" cy="464.7114317029974" r="14"/>	<circle fill="none" stroke-width="2" stroke-dasharray="5 5" stroke="black" cx="880.0" cy="464.7114317029974" r="20"/><polygon style="fill: black" points="1066.5,529.6633369868302 1029.5,593.7492168668787 955.5,593.7492168668787 918.5,529.6633369868302 955.5,465.5774571067818 1029.5,465.5774571067818"></polygon>
<polygon style="fill: #D5E1C8" points="1065.5,529.6633369868302 1029.0,592.8831914630942 956.0,592.8831914630942 919.5,529.6633369868302 956.0,466.44348251056624 1029.0,466.44348251056624"></polygon>
	<circle fill="black" cx="992.5" cy="529.6633369868302" r="14"/>	<circle fill="none" stroke-width="2" stroke-dasharray="5 5" stroke="black" cx="992.5" cy="529.6633369868302" r="20"/><polygon style="fill: black" points="1179.0,464.7114317029974 1142.0,528.7973115830458 1068.0,528.7973115830458 1031.0,464.7114317029974 1068.0,400.625551822949 1142.0,400.625551822949"></polygon>
<polygon style="fill: #D5E1C8" points="1178.0,464.7114317029974 1141.5,527.9312861792614 1068.5,527.9312861792614 1032.0,464.7114317029974 1068.5,401.4915772267334 1141.5,401.4915772267334"></polygon>
<polygon style="fill: black" points="1291.5,529.6633369868302 1254.5,593.7492168668787 1180.5,593.7492168668787 1143.5,529.6633369868302 1180.5,465.5774571067818 1254.5,465.5774571067818"></polygon>
<polygon style="fill: #D5E1C8" points="1290.5,529.6633369868302 1254.0,592.8831914630942 1181.0,592.8831914630942 1144.5,529.6633369868302 1181.0,466.44348251056624 1254.0,466.44348251056624"></polygon>
	<text fill="black" font-size="24px" x="1217.5" y="492.66333698683025" text-anchor="middle" alignment-baseline="middle">Lagos</text>
	<circle fill="white" stroke="black" cx="1217.5" cy="549.6633369868302" r="23"/>	<circle fill="white" stroke="black" cx="1217.5" cy="549.6633369868302" r="21"/><polygon style="fill: black" points="729.0,594.6152422706632 692.0,658.7011221507116 618.0,658.7011221507116 581.0,594.6152422706632 618.0,530.5293623906148 692.0,530.5293623906148"></polygon>
<polygon style="fill: #D5E1C8" points="728.0,594.6152422706632 691.5,657.8350967469272 618.5,657.8350967469272 582.0,594.6152422706632 618.5,531.3953877943992 691.5,531.3953877943992"></polygon>
	<circle fill="black" cx="655.0" cy="594.6152422706632" r="14"/>	<circle fill="none" stroke-width="2" stroke-dasharray="5 5" stroke="black" cx="655.0" cy="594.6152422706632" r="20"/><polygon style="fill: black" points="841.5,659.5671475544962 804.5,723.6530274345446 730.5,723.6530274345446 693.5,659.5671475544962 730.5,595.4812676744477 804.5,595.4812676744477"></polygon>
<polygon style="fill: #D5E1C8" points="840.5,659.5671475544962 804.0,722.7870020307602 731.0,722.7870020307602 694.5,659.5671475544962 731.0,596.3472930782322 804.0,596.3472930782322"></polygon>
	<text fill="black" font-size="24px" x="767.5" y="622.5671475544962" text-anchor="middle" alignment-baseline="middle">Lisboa</text>
	<circle fill="white" stroke="black" cx="740.5" cy="656.5671475544962" r="23"/>	<circle fill="white" stroke="black" cx="740.5" cy="656.5671475544962" r="21"/>	<circle fill="white" stroke="black" cx="794.5" cy="656.5671475544962" r="23"/>	<circle fill="white" stroke="black" cx="794.5" cy="656.5671475544962" r="21"/>	<circle fill="white" stroke="black" cx="767.5" cy="697.5671475544962" r="23"/>	<circle fill="white" stroke="black" cx="767.5" cy="697.5671475544962" r="21"/></svg>