<svg id="color-fill" xmlns="http://www.w3.org/2000/svg" version="1.1" width="1000" height="1600" xmlns:xlink="http://www.w3.org/1999/xlink">
<polygon style="fill: black" points="50.0,1.0 92.43524478543749,25.5 92.43524478543749,74.5 50.0,99.0 7.56475521456251,74.5 7.56475521456251,25.5"></polygon>
<polygon style="fill: red" points="50.0,3.0 90.70319397786861,26.5 90.70319397786861,73.5 50.0,97.0 9.296806022131385,73.5 9.296806022131385,26.5"></polygon>
<polygon style="fill: blue" points="136.60254037844385,1.0 179.03778516388132,25.5 179.03778516388132,74.5 136.60254037844385,99.0 94.16729559300636,74.5 94.16729559300636,25.5"></polygon>
<polygon style="fill: purple" points="223.20508075688772,1.0 265.64032554232523,25.5 265.64032554232523,74.5 223.20508075688772,99.0 180.76983597145022,74.5 180.76983597145022,25.5"></polygon>
<polygon style="fill: green" points="93.30127018922192,76.0 135.73651497465943,100.5 135.73651497465943,149.5 93.30127018922192,174.0 50.866025403784434,149.5 50.866025403784434,100.5"></polygon>
<polygon style="fill: orange" points="179.90381056766577,76.0 222.33905535310328,100.5 222.33905535310328,149.5 179.90381056766577,174.0 137.46856578222827,149.5 137.46856578222827,100.5"></polygon>
<polygon style="fill: grey" points="266.50635094610965,76.0 308.9415957315471,100.5 308.9415957315471,149.5 266.50635094610965,174.0 224.07110616067217,149.5 224.07110616067217,100.5"></polygon>
<polygon style="fill: pink" points="50.0,151.0 92.43524478543749,175.5 92.43524478543749,224.5 50.0,249.0 7.56475521456251,224.5 7.56475521456251,175.5"></polygon>
<polygon style="fill: cyan" points="136.60254037844385,151.0 179.03778516388132,175.5 179.03778516388132,224.5 136.60254037844385,249.0 94.16729559300636,224.5 94.16729559300636,175.5"></polygon>
<polygon style="fill: lime" points="223.20508075688772,151.0 265.64032554232523,175.5 265.64032554232523,224.5 223.20508075688772,249.0 180.76983597145022,224.5 180.76983597145022,175.5"></polygon>
<polygon style="fill: maroon" points="179.90381056766577,226.0 222.33905535310328,250.5 222.33905535310328,299.5 179.90381056766577,324.0 137.46856578222827,299.5 137.46856578222827,250.5"></polygon>
<polygon style="fill: black" points="439.7114317029974,226.0 482.1466764884349,250.5 482.1466764884349,299.5 439.7114317029974,324.0 397.2761869175599,299.5 397.2761869175599,250.5"></polygon>
</svg>
