<svg style="background-color: #62887C" xmlns="http://www.w3.org/2000/svg" version="1.1" width="1400" height="950" viewBox="0 0 1400 950" xmlns:xlink="http://www.w3.org/1999/xlink">
<polygon style="fill: #9EA76E" points="50.0,1.0 92.43524478543749,25.5 92.43524478543749,74.5 50.0,99.0 7.56475521456251,74.5 7.56475521456251,25.5"></polygon>
<polygon style="fill: #6D9160" points="50.0,17.0 78.57883832488648,33.5 78.57883832488648,66.5 50.0,83.0 21.421161675113527,66.5 21.421161675113527,33.5"></polygon>
<polygon style="fill: #9EA76E" points="136.60254037844385,1.0 179.03778516388132,25.5 179.03778516388132,74.5 136.60254037844385,99.0 94.16729559300636,74.5 94.16729559300636,25.5"></polygon>
<polygon style="fill: #6D9160" points="136.60254037844385,17.0 165.18137870333032,33.5 165.18137870333032,66.5 136.60254037844385,83.0 108.02370205355737,66.5 108.02370205355737,33.5"></polygon>
<polygon style="fill: red" points="223.20508075688772,1.0 265.64032554232523,25.5 265.64032554232523,74.5 223.20508075688772,99.0 180.76983597145022,74.5 180.76983597145022,25.5"></polygon>
<polygon style="fill: #6D9160" points="223.20508075688772,5.0 262.1762239271875,27.5 262.1762239271875,72.5 223.20508075688772,95.0 184.23393758658798,72.5 184.23393758658798,27.5"></polygon>
<text text-anchor="middle" x="223.20508075688772" y="75.0">Belfast</text><polygon style="fill: #9EA76E" points="309.8076211353316,1.0 352.2428659207691,25.5 352.2428659207691,74.5 309.8076211353316,99.0 267.3723763498941,74.5 267.3723763498941,25.5"></polygon>
<polygon style="fill: #6D9160" points="309.8076211353316,17.0 338.3864594602181,33.5 338.3864594602181,66.5 309.8076211353316,83.0 281.2287828104451,66.5 281.2287828104451,33.5"></polygon>
<polygon style="fill: #9EA76E" points="396.41016151377545,1.0 438.8454062992129,25.5 438.8454062992129,74.5 396.41016151377545,99.0 353.974916728338,74.5 353.974916728338,25.5"></polygon>
<polygon style="fill: #6D9160" points="396.41016151377545,17.0 424.9889998386619,33.5 424.9889998386619,66.5 396.41016151377545,83.0 367.831323188889,66.5 367.831323188889,33.5"></polygon>
<polygon style="fill: black" points="829.4228634059948,1.0 871.8581081914323,25.5 871.8581081914323,74.5 829.4228634059948,99.0 786.9876186205573,74.5 786.9876186205573,25.5"></polygon>
<polygon style="fill: #6D9160" points="829.4228634059948,5.0 868.3940065762945,27.5 868.3940065762945,72.5 829.4228634059948,95.0 790.4517202356951,72.5 790.4517202356951,27.5"></polygon>
<text text-anchor="middle" x="829.4228634059948" y="75.0">Wicklow</text><polygon style="fill: black" points="916.0254037844386,1.0 958.4606485698761,25.5 958.4606485698761,74.5 916.0254037844386,99.0 873.5901589990011,74.5 873.5901589990011,25.5"></polygon>
<polygon style="fill: #6D9160" points="916.0254037844386,5.0 954.9965469547383,27.5 954.9965469547383,72.5 916.0254037844386,95.0 877.0542606141389,72.5 877.0542606141389,27.5"></polygon>
<text text-anchor="middle" x="916.0254037844386" y="75.0">Arklow</text><polygon style="fill: #9EA76E" points="93.30127018922192,76.0 135.73651497465943,100.5 135.73651497465943,149.5 93.30127018922192,174.0 50.866025403784434,149.5 50.866025403784434,100.5"></polygon>
<polygon style="fill: #9EA76E" points="179.90381056766577,76.0 222.33905535310328,100.5 222.33905535310328,149.5 179.90381056766577,174.0 137.46856578222827,149.5 137.46856578222827,100.5"></polygon>
<polygon style="fill: #9EA76E" points="266.50635094610965,76.0 308.9415957315471,100.5 308.9415957315471,149.5 266.50635094610965,174.0 224.07110616067217,149.5 224.07110616067217,100.5"></polygon>
<polygon style="fill: #9EA76E" points="353.10889132455355,76.0 395.54413610999103,100.5 395.54413610999103,149.5 353.10889132455355,174.0 310.6736465391161,149.5 310.6736465391161,100.5"></polygon>
<polygon style="fill: #9EA76E" points="439.7114317029974,76.0 482.1466764884349,100.5 482.1466764884349,149.5 439.7114317029974,174.0 397.2761869175599,149.5 397.2761869175599,100.5"></polygon>
<polygon style="fill: black" points="526.3139720814412,76.0 568.7492168668787,100.5 568.7492168668787,149.5 526.3139720814412,174.0 483.8787272960037,149.5 483.8787272960037,100.5"></polygon>
<polygon style="fill: #6D9160" points="526.3139720814412,80.0 565.285115251741,102.5 565.285115251741,147.5 526.3139720814412,170.0 487.34282891114145,147.5 487.34282891114145,102.5"></polygon>
<text text-anchor="middle" x="526.3139720814412" y="150.0">Drogheda</text><polygon style="fill: #9EA76E" points="612.9165124598851,76.0 655.3517572453226,100.5 655.3517572453226,149.5 612.9165124598851,174.0 570.4812676744476,149.5 570.4812676744476,100.5"></polygon>
<polygon style="fill: red" points="699.5190528383289,76.0 741.9542976237664,100.5 741.9542976237664,149.5 699.5190528383289,174.0 657.0838080528914,149.5 657.0838080528914,100.5"></polygon>
<polygon style="fill: #6D9160" points="699.5190528383289,80.0 738.4901960086286,102.5 738.4901960086286,147.5 699.5190528383289,170.0 660.5479096680292,147.5 660.5479096680292,102.5"></polygon>
<text text-anchor="middle" x="699.5190528383289" y="150.0">Dublin</text><polygon style="fill: #9EA76E" points="786.1215932167728,76.0 828.5568380022103,100.5 828.5568380022103,149.5 786.1215932167728,174.0 743.6863484313353,149.5 743.6863484313353,100.5"></polygon>
<polygon style="fill: #6D9160" points="786.1215932167728,92.0 814.7004315416592,108.5 814.7004315416592,141.5 786.1215932167728,158.0 757.5427548918864,141.5 757.5427548918864,108.5"></polygon>
<polygon style="fill: #9EA76E" points="872.7241335952167,76.0 915.1593783806542,100.5 915.1593783806542,149.5 872.7241335952167,174.0 830.2888888097792,149.5 830.2888888097792,100.5"></polygon>
<polygon style="fill: #6D9160" points="872.7241335952167,92.0 901.3029719201031,108.5 901.3029719201031,141.5 872.7241335952167,158.0 844.1452952703303,141.5 844.1452952703303,108.5"></polygon>
<polygon style="fill: #9EA76E" points="959.3266739736605,76.0 1001.761918759098,100.5 1001.761918759098,149.5 959.3266739736605,174.0 916.891429188223,149.5 916.891429188223,100.5"></polygon>
<polygon style="fill: #9EA76E" points="1045.9292143521045,76.0 1088.364459137542,100.5 1088.364459137542,149.5 1045.9292143521045,174.0 1003.493969566667,149.5 1003.493969566667,100.5"></polygon>
<polygon style="fill: #9EA76E" points="50.0,151.0 92.43524478543749,175.5 92.43524478543749,224.5 50.0,249.0 7.56475521456251,224.5 7.56475521456251,175.5"></polygon>
<polygon style="fill: #9EA76E" points="136.60254037844385,151.0 179.03778516388132,175.5 179.03778516388132,224.5 136.60254037844385,249.0 94.16729559300636,224.5 94.16729559300636,175.5"></polygon>
<polygon style="fill: #9EA76E" points="223.20508075688772,151.0 265.64032554232523,175.5 265.64032554232523,224.5 223.20508075688772,249.0 180.76983597145022,224.5 180.76983597145022,175.5"></polygon>
<polygon style="fill: #9EA76E" points="309.8076211353316,151.0 352.2428659207691,175.5 352.2428659207691,224.5 309.8076211353316,249.0 267.3723763498941,224.5 267.3723763498941,175.5"></polygon>
<polygon style="fill: #6D9160" points="309.8076211353316,167.0 338.3864594602181,183.5 338.3864594602181,216.5 309.8076211353316,233.0 281.2287828104451,216.5 281.2287828104451,183.5"></polygon>
<polygon style="fill: #9EA76E" points="396.41016151377545,151.0 438.8454062992129,175.5 438.8454062992129,224.5 396.41016151377545,249.0 353.974916728338,224.5 353.974916728338,175.5"></polygon>
<polygon style="fill: #9EA76E" points="483.0127018922193,151.0 525.4479466776568,175.5 525.4479466776568,224.5 483.0127018922193,249.0 440.5774571067818,224.5 440.5774571067818,175.5"></polygon>
<polygon style="fill: #9EA76E" points="569.6152422706632,151.0 612.0504870561007,175.5 612.0504870561007,224.5 569.6152422706632,249.0 527.1799974852257,224.5 527.1799974852257,175.5"></polygon>
<polygon style="fill: #9EA76E" points="656.217782649107,151.0 698.6530274345445,175.5 698.6530274345445,224.5 656.217782649107,249.0 613.7825378636695,224.5 613.7825378636695,175.5"></polygon>
<polygon style="fill: #9EA76E" points="742.8203230275509,151.0 785.2555678129884,175.5 785.2555678129884,224.5 742.8203230275509,249.0 700.3850782421134,224.5 700.3850782421134,175.5"></polygon>
<polygon style="fill: #9EA76E" points="829.4228634059948,151.0 871.8581081914323,175.5 871.8581081914323,224.5 829.4228634059948,249.0 786.9876186205573,224.5 786.9876186205573,175.5"></polygon>
<polygon style="fill: #9EA76E" points="916.0254037844386,151.0 958.4606485698761,175.5 958.4606485698761,224.5 916.0254037844386,249.0 873.5901589990011,224.5 873.5901589990011,175.5"></polygon>
<polygon style="fill: #9EA76E" points="1002.6279441628825,151.0 1045.06318894832,175.5 1045.06318894832,224.5 1002.6279441628825,249.0 960.192699377445,224.5 960.192699377445,175.5"></polygon>
<polygon style="fill: #6D9160" points="1002.6279441628825,167.0 1031.206782487769,183.5 1031.206782487769,216.5 1002.6279441628825,233.0 974.0491058379961,216.5 974.0491058379961,183.5"></polygon>
<polygon style="fill: #9EA76E" points="1089.2304845413264,151.0 1131.665729326764,175.5 1131.665729326764,224.5 1089.2304845413264,249.0 1046.7952397558888,224.5 1046.7952397558888,175.5"></polygon>
<polygon style="fill: #9EA76E" points="93.30127018922192,226.0 135.73651497465943,250.5 135.73651497465943,299.5 93.30127018922192,324.0 50.866025403784434,299.5 50.866025403784434,250.5"></polygon>
<polygon style="fill: #6D9160" points="93.30127018922192,242.0 121.8801085141084,258.5 121.8801085141084,291.5 93.30127018922192,308.0 64.72243186433545,291.5 64.72243186433545,258.5"></polygon>
<polygon style="fill: #9EA76E" points="179.90381056766577,226.0 222.33905535310328,250.5 222.33905535310328,299.5 179.90381056766577,324.0 137.46856578222827,299.5 137.46856578222827,250.5"></polygon>
<polygon style="fill: #6D9160" points="179.90381056766577,242.0 208.48264889255225,258.5 208.48264889255225,291.5 179.90381056766577,308.0 151.3249722427793,291.5 151.3249722427793,258.5"></polygon>
<polygon style="fill: #9EA76E" points="266.50635094610965,226.0 308.9415957315471,250.5 308.9415957315471,299.5 266.50635094610965,324.0 224.07110616067217,299.5 224.07110616067217,250.5"></polygon>
<polygon style="fill: #6D9160" points="266.50635094610965,242.0 295.0851892709961,258.5 295.0851892709961,291.5 266.50635094610965,308.0 237.92751262122317,291.5 237.92751262122317,258.5"></polygon>
<polygon style="fill: black" points="353.10889132455355,226.0 395.54413610999103,250.5 395.54413610999103,299.5 353.10889132455355,324.0 310.6736465391161,299.5 310.6736465391161,250.5"></polygon>
<polygon style="fill: #6D9160" points="353.10889132455355,230.0 392.0800344948533,252.5 392.0800344948533,297.5 353.10889132455355,320.0 314.1377481542538,297.5 314.1377481542538,252.5"></polygon>
<text text-anchor="middle" x="353.10889132455355" y="300.0">Monaghan</text><polygon style="fill: #9EA76E" points="439.7114317029974,226.0 482.1466764884349,250.5 482.1466764884349,299.5 439.7114317029974,324.0 397.2761869175599,299.5 397.2761869175599,250.5"></polygon>
<polygon style="fill: #9EA76E" points="526.3139720814412,226.0 568.7492168668787,250.5 568.7492168668787,299.5 526.3139720814412,324.0 483.8787272960037,299.5 483.8787272960037,250.5"></polygon>
<polygon style="fill: #9EA76E" points="612.9165124598851,226.0 655.3517572453226,250.5 655.3517572453226,299.5 612.9165124598851,324.0 570.4812676744476,299.5 570.4812676744476,250.5"></polygon>
<polygon style="fill: #9EA76E" points="699.5190528383289,226.0 741.9542976237664,250.5 741.9542976237664,299.5 699.5190528383289,324.0 657.0838080528914,299.5 657.0838080528914,250.5"></polygon>
<polygon style="fill: #9EA76E" points="786.1215932167728,226.0 828.5568380022103,250.5 828.5568380022103,299.5 786.1215932167728,324.0 743.6863484313353,299.5 743.6863484313353,250.5"></polygon>
<polygon style="fill: #9EA76E" points="872.7241335952167,226.0 915.1593783806542,250.5 915.1593783806542,299.5 872.7241335952167,324.0 830.2888888097792,299.5 830.2888888097792,250.5"></polygon>
<polygon style="fill: #6D9160" points="872.7241335952167,242.0 901.3029719201031,258.5 901.3029719201031,291.5 872.7241335952167,308.0 844.1452952703303,291.5 844.1452952703303,258.5"></polygon>
<polygon style="fill: #9EA76E" points="959.3266739736605,226.0 1001.761918759098,250.5 1001.761918759098,299.5 959.3266739736605,324.0 916.891429188223,299.5 916.891429188223,250.5"></polygon>
<polygon style="fill: black" points="1045.9292143521045,226.0 1088.364459137542,250.5 1088.364459137542,299.5 1045.9292143521045,324.0 1003.493969566667,299.5 1003.493969566667,250.5"></polygon>
<polygon style="fill: #6D9160" points="1045.9292143521045,230.0 1084.9003575224042,252.5 1084.9003575224042,297.5 1045.9292143521045,320.0 1006.9580711818048,297.5 1006.9580711818048,252.5"></polygon>
<text text-anchor="middle" x="1045.9292143521045" y="300.0">New Ross</text><polygon style="fill: black" points="1132.5317547305483,226.0 1174.966999515986,250.5 1174.966999515986,299.5 1132.5317547305483,324.0 1090.0965099451107,299.5 1090.0965099451107,250.5"></polygon>
<polygon style="fill: #6D9160" points="1132.5317547305483,230.0 1171.502897900848,252.5 1171.502897900848,297.5 1132.5317547305483,320.0 1093.5606115602486,297.5 1093.5606115602486,252.5"></polygon>
<text text-anchor="middle" x="1132.5317547305483" y="300.0">Waterford</text><polygon style="fill: #9EA76E" points="50.0,301.0 92.43524478543749,325.5 92.43524478543749,374.5 50.0,399.0 7.56475521456251,374.5 7.56475521456251,325.5"></polygon>
<polygon style="fill: black" points="136.60254037844385,301.0 179.03778516388132,325.5 179.03778516388132,374.5 136.60254037844385,399.0 94.16729559300636,374.5 94.16729559300636,325.5"></polygon>
<polygon style="fill: #6D9160" points="136.60254037844385,305.0 175.5736835487436,327.5 175.5736835487436,372.5 136.60254037844385,395.0 97.63139720814411,372.5 97.63139720814411,327.5"></polygon>
<text text-anchor="middle" x="136.60254037844385" y="375.0">Derry</text><polygon style="fill: #9EA76E" points="223.20508075688772,301.0 265.64032554232523,325.5 265.64032554232523,374.5 223.20508075688772,399.0 180.76983597145022,374.5 180.76983597145022,325.5"></polygon>
<polygon style="fill: #9EA76E" points="309.8076211353316,301.0 352.2428659207691,325.5 352.2428659207691,374.5 309.8076211353316,399.0 267.3723763498941,374.5 267.3723763498941,325.5"></polygon>
<polygon style="fill: #6D9160" points="309.8076211353316,317.0 338.3864594602181,333.5 338.3864594602181,366.5 309.8076211353316,383.0 281.2287828104451,366.5 281.2287828104451,333.5"></polygon>
<polygon style="fill: #9EA76E" points="396.41016151377545,301.0 438.8454062992129,325.5 438.8454062992129,374.5 396.41016151377545,399.0 353.974916728338,374.5 353.974916728338,325.5"></polygon>
<polygon style="fill: #9EA76E" points="483.0127018922193,301.0 525.4479466776568,325.5 525.4479466776568,374.5 483.0127018922193,399.0 440.5774571067818,374.5 440.5774571067818,325.5"></polygon>
<polygon style="fill: #9EA76E" points="569.6152422706632,301.0 612.0504870561007,325.5 612.0504870561007,374.5 569.6152422706632,399.0 527.1799974852257,374.5 527.1799974852257,325.5"></polygon>
<polygon style="fill: #9EA76E" points="656.217782649107,301.0 698.6530274345445,325.5 698.6530274345445,374.5 656.217782649107,399.0 613.7825378636695,374.5 613.7825378636695,325.5"></polygon>
<polygon style="fill: #9EA76E" points="742.8203230275509,301.0 785.2555678129884,325.5 785.2555678129884,374.5 742.8203230275509,399.0 700.3850782421134,374.5 700.3850782421134,325.5"></polygon>
<polygon style="fill: #9EA76E" points="829.4228634059948,301.0 871.8581081914323,325.5 871.8581081914323,374.5 829.4228634059948,399.0 786.9876186205573,374.5 786.9876186205573,325.5"></polygon>
<polygon style="fill: #9EA76E" points="916.0254037844386,301.0 958.4606485698761,325.5 958.4606485698761,374.5 916.0254037844386,399.0 873.5901589990011,374.5 873.5901589990011,325.5"></polygon>
<polygon style="fill: black" points="1002.6279441628825,301.0 1045.06318894832,325.5 1045.06318894832,374.5 1002.6279441628825,399.0 960.192699377445,374.5 960.192699377445,325.5"></polygon>
<polygon style="fill: #6D9160" points="1002.6279441628825,305.0 1041.5990873331823,327.5 1041.5990873331823,372.5 1002.6279441628825,395.0 963.6568009925827,372.5 963.6568009925827,327.5"></polygon>
<text text-anchor="middle" x="1002.6279441628825" y="375.0">Kilkenny</text><polygon style="fill: #9EA76E" points="1089.2304845413264,301.0 1131.665729326764,325.5 1131.665729326764,374.5 1089.2304845413264,399.0 1046.7952397558888,374.5 1046.7952397558888,325.5"></polygon>
<polygon style="fill: #9EA76E" points="93.30127018922192,376.0 135.73651497465943,400.5 135.73651497465943,449.5 93.30127018922192,474.0 50.866025403784434,449.5 50.866025403784434,400.5"></polygon>
<polygon style="fill: #9EA76E" points="179.90381056766577,376.0 222.33905535310328,400.5 222.33905535310328,449.5 179.90381056766577,474.0 137.46856578222827,449.5 137.46856578222827,400.5"></polygon>
<polygon style="fill: #6D9160" points="179.90381056766577,392.0 208.48264889255225,408.5 208.48264889255225,441.5 179.90381056766577,458.0 151.3249722427793,441.5 151.3249722427793,408.5"></polygon>
<polygon style="fill: #9EA76E" points="266.50635094610965,376.0 308.9415957315471,400.5 308.9415957315471,449.5 266.50635094610965,474.0 224.07110616067217,449.5 224.07110616067217,400.5"></polygon>
<polygon style="fill: #9EA76E" points="353.10889132455355,376.0 395.54413610999103,400.5 395.54413610999103,449.5 353.10889132455355,474.0 310.6736465391161,449.5 310.6736465391161,400.5"></polygon>
<polygon style="fill: #9EA76E" points="439.7114317029974,376.0 482.1466764884349,400.5 482.1466764884349,449.5 439.7114317029974,474.0 397.2761869175599,449.5 397.2761869175599,400.5"></polygon>
<polygon style="fill: #9EA76E" points="526.3139720814412,376.0 568.7492168668787,400.5 568.7492168668787,449.5 526.3139720814412,474.0 483.8787272960037,449.5 483.8787272960037,400.5"></polygon>
<polygon style="fill: #9EA76E" points="612.9165124598851,376.0 655.3517572453226,400.5 655.3517572453226,449.5 612.9165124598851,474.0 570.4812676744476,449.5 570.4812676744476,400.5"></polygon>
<polygon style="fill: black" points="699.5190528383289,376.0 741.9542976237664,400.5 741.9542976237664,449.5 699.5190528383289,474.0 657.0838080528914,449.5 657.0838080528914,400.5"></polygon>
<polygon style="fill: #6D9160" points="699.5190528383289,380.0 738.4901960086286,402.5 738.4901960086286,447.5 699.5190528383289,470.0 660.5479096680292,447.5 660.5479096680292,402.5"></polygon>
<text text-anchor="middle" x="699.5190528383289" y="450.0">Tullamore</text><polygon style="fill: #9EA76E" points="786.1215932167728,376.0 828.5568380022103,400.5 828.5568380022103,449.5 786.1215932167728,474.0 743.6863484313353,449.5 743.6863484313353,400.5"></polygon>
<polygon style="fill: #6D9160" points="786.1215932167728,392.0 814.7004315416592,408.5 814.7004315416592,441.5 786.1215932167728,458.0 757.5427548918864,441.5 757.5427548918864,408.5"></polygon>
<polygon style="fill: #9EA76E" points="872.7241335952167,376.0 915.1593783806542,400.5 915.1593783806542,449.5 872.7241335952167,474.0 830.2888888097792,449.5 830.2888888097792,400.5"></polygon>
<polygon style="fill: #9EA76E" points="959.3266739736605,376.0 1001.761918759098,400.5 1001.761918759098,449.5 959.3266739736605,474.0 916.891429188223,449.5 916.891429188223,400.5"></polygon>
<polygon style="fill: #9EA76E" points="1045.9292143521045,376.0 1088.364459137542,400.5 1088.364459137542,449.5 1045.9292143521045,474.0 1003.493969566667,449.5 1003.493969566667,400.5"></polygon>
<polygon style="fill: #9EA76E" points="1132.5317547305483,376.0 1174.966999515986,400.5 1174.966999515986,449.5 1132.5317547305483,474.0 1090.0965099451107,449.5 1090.0965099451107,400.5"></polygon>
<polygon style="fill: #6D9160" points="1132.5317547305483,392.0 1161.1105930554347,408.5 1161.1105930554347,441.5 1132.5317547305483,458.0 1103.9529164056619,441.5 1103.9529164056619,408.5"></polygon>
<polygon style="fill: #9EA76E" points="50.0,451.0 92.43524478543749,475.5 92.43524478543749,524.5 50.0,549.0 7.56475521456251,524.5 7.56475521456251,475.5"></polygon>
<polygon style="fill: #6D9160" points="50.0,467.0 78.57883832488648,483.5 78.57883832488648,516.5 50.0,533.0 21.421161675113527,516.5 21.421161675113527,483.5"></polygon>
<polygon style="fill: #9EA76E" points="136.60254037844385,451.0 179.03778516388132,475.5 179.03778516388132,524.5 136.60254037844385,549.0 94.16729559300636,524.5 94.16729559300636,475.5"></polygon>
<polygon style="fill: #6D9160" points="136.60254037844385,467.0 165.18137870333032,483.5 165.18137870333032,516.5 136.60254037844385,533.0 108.02370205355737,516.5 108.02370205355737,483.5"></polygon>
<polygon style="fill: #9EA76E" points="223.20508075688772,451.0 265.64032554232523,475.5 265.64032554232523,524.5 223.20508075688772,549.0 180.76983597145022,524.5 180.76983597145022,475.5"></polygon>
<polygon style="fill: #9EA76E" points="309.8076211353316,451.0 352.2428659207691,475.5 352.2428659207691,524.5 309.8076211353316,549.0 267.3723763498941,524.5 267.3723763498941,475.5"></polygon>
<polygon style="fill: #9EA76E" points="396.41016151377545,451.0 438.8454062992129,475.5 438.8454062992129,524.5 396.41016151377545,549.0 353.974916728338,524.5 353.974916728338,475.5"></polygon>
<polygon style="fill: #9EA76E" points="483.0127018922193,451.0 525.4479466776568,475.5 525.4479466776568,524.5 483.0127018922193,549.0 440.5774571067818,524.5 440.5774571067818,475.5"></polygon>
<polygon style="fill: #9EA76E" points="569.6152422706632,451.0 612.0504870561007,475.5 612.0504870561007,524.5 569.6152422706632,549.0 527.1799974852257,524.5 527.1799974852257,475.5"></polygon>
<polygon style="fill: #9EA76E" points="656.217782649107,451.0 698.6530274345445,475.5 698.6530274345445,524.5 656.217782649107,549.0 613.7825378636695,524.5 613.7825378636695,475.5"></polygon>
<polygon style="fill: #9EA76E" points="742.8203230275509,451.0 785.2555678129884,475.5 785.2555678129884,524.5 742.8203230275509,549.0 700.3850782421134,524.5 700.3850782421134,475.5"></polygon>
<polygon style="fill: #9EA76E" points="829.4228634059948,451.0 871.8581081914323,475.5 871.8581081914323,524.5 829.4228634059948,549.0 786.9876186205573,524.5 786.9876186205573,475.5"></polygon>
<polygon style="fill: #9EA76E" points="916.0254037844386,451.0 958.4606485698761,475.5 958.4606485698761,524.5 916.0254037844386,549.0 873.5901589990011,524.5 873.5901589990011,475.5"></polygon>
<polygon style="fill: #6D9160" points="916.0254037844386,467.0 944.604242109325,483.5 944.604242109325,516.5 916.0254037844386,533.0 887.4465654595522,516.5 887.4465654595522,483.5"></polygon>
<polygon style="fill: #9EA76E" points="1002.6279441628825,451.0 1045.06318894832,475.5 1045.06318894832,524.5 1002.6279441628825,549.0 960.192699377445,524.5 960.192699377445,475.5"></polygon>
<polygon style="fill: #9EA76E" points="1089.2304845413264,451.0 1131.665729326764,475.5 1131.665729326764,524.5 1089.2304845413264,549.0 1046.7952397558888,524.5 1046.7952397558888,475.5"></polygon>
<polygon style="fill: #9EA76E" points="1175.8330249197702,451.0 1218.2682697052078,475.5 1218.2682697052078,524.5 1175.8330249197702,549.0 1133.3977801343326,524.5 1133.3977801343326,475.5"></polygon>
<polygon style="fill: #9EA76E" points="93.30127018922192,526.0 135.73651497465943,550.5 135.73651497465943,599.5 93.30127018922192,624.0 50.866025403784434,599.5 50.866025403784434,550.5"></polygon>
<polygon style="fill: #9EA76E" points="179.90381056766577,526.0 222.33905535310328,550.5 222.33905535310328,599.5 179.90381056766577,624.0 137.46856578222827,599.5 137.46856578222827,550.5"></polygon>
<polygon style="fill: #9EA76E" points="353.10889132455355,526.0 395.54413610999103,550.5 395.54413610999103,599.5 353.10889132455355,624.0 310.6736465391161,599.5 310.6736465391161,550.5"></polygon>
<polygon style="fill: #9EA76E" points="439.7114317029974,526.0 482.1466764884349,550.5 482.1466764884349,599.5 439.7114317029974,624.0 397.2761869175599,599.5 397.2761869175599,550.5"></polygon>
<polygon style="fill: #9EA76E" points="526.3139720814412,526.0 568.7492168668787,550.5 568.7492168668787,599.5 526.3139720814412,624.0 483.8787272960037,599.5 483.8787272960037,550.5"></polygon>
<polygon style="fill: #9EA76E" points="612.9165124598851,526.0 655.3517572453226,550.5 655.3517572453226,599.5 612.9165124598851,624.0 570.4812676744476,599.5 570.4812676744476,550.5"></polygon>
<polygon style="fill: #9EA76E" points="699.5190528383289,526.0 741.9542976237664,550.5 741.9542976237664,599.5 699.5190528383289,624.0 657.0838080528914,599.5 657.0838080528914,550.5"></polygon>
<polygon style="fill: #9EA76E" points="786.1215932167728,526.0 828.5568380022103,550.5 828.5568380022103,599.5 786.1215932167728,624.0 743.6863484313353,599.5 743.6863484313353,550.5"></polygon>
<polygon style="fill: #9EA76E" points="872.7241335952167,526.0 915.1593783806542,550.5 915.1593783806542,599.5 872.7241335952167,624.0 830.2888888097792,599.5 830.2888888097792,550.5"></polygon>
<polygon style="fill: #9EA76E" points="959.3266739736605,526.0 1001.761918759098,550.5 1001.761918759098,599.5 959.3266739736605,624.0 916.891429188223,599.5 916.891429188223,550.5"></polygon>
<polygon style="fill: #6D9160" points="959.3266739736605,542.0 987.9055122985469,558.5 987.9055122985469,591.5 959.3266739736605,608.0 930.7478356487741,591.5 930.7478356487741,558.5"></polygon>
<polygon style="fill: #9EA76E" points="1045.9292143521045,526.0 1088.364459137542,550.5 1088.364459137542,599.5 1045.9292143521045,624.0 1003.493969566667,599.5 1003.493969566667,550.5"></polygon>
<polygon style="fill: #9EA76E" points="1132.5317547305483,526.0 1174.966999515986,550.5 1174.966999515986,599.5 1132.5317547305483,624.0 1090.0965099451107,599.5 1090.0965099451107,550.5"></polygon>
<polygon style="fill: #9EA76E" points="1219.134295108992,526.0 1261.5695398944297,550.5 1261.5695398944297,599.5 1219.134295108992,624.0 1176.6990503235545,599.5 1176.6990503235545,550.5"></polygon>
<polygon style="fill: black" points="309.8076211353316,601.0 352.2428659207691,625.5 352.2428659207691,674.5 309.8076211353316,699.0 267.3723763498941,674.5 267.3723763498941,625.5"></polygon>
<polygon style="fill: #6D9160" points="309.8076211353316,605.0 348.77876430563134,627.5 348.77876430563134,672.5 309.8076211353316,695.0 270.83647796503186,672.5 270.83647796503186,627.5"></polygon>
<text text-anchor="middle" x="309.8076211353316" y="675.0">Sligo</text><polygon style="fill: #9EA76E" points="396.41016151377545,601.0 438.8454062992129,625.5 438.8454062992129,674.5 396.41016151377545,699.0 353.974916728338,674.5 353.974916728338,625.5"></polygon>
<polygon style="fill: #6D9160" points="396.41016151377545,617.0 424.9889998386619,633.5 424.9889998386619,666.5 396.41016151377545,683.0 367.831323188889,666.5 367.831323188889,633.5"></polygon>
<polygon style="fill: #9EA76E" points="483.0127018922193,601.0 525.4479466776568,625.5 525.4479466776568,674.5 483.0127018922193,699.0 440.5774571067818,674.5 440.5774571067818,625.5"></polygon>
<polygon style="fill: #9EA76E" points="569.6152422706632,601.0 612.0504870561007,625.5 612.0504870561007,674.5 569.6152422706632,699.0 527.1799974852257,674.5 527.1799974852257,625.5"></polygon>
<polygon style="fill: #9EA76E" points="656.217782649107,601.0 698.6530274345445,625.5 698.6530274345445,674.5 656.217782649107,699.0 613.7825378636695,674.5 613.7825378636695,625.5"></polygon>
<polygon style="fill: #9EA76E" points="742.8203230275509,601.0 785.2555678129884,625.5 785.2555678129884,674.5 742.8203230275509,699.0 700.3850782421134,674.5 700.3850782421134,625.5"></polygon>
<polygon style="fill: #9EA76E" points="829.4228634059948,601.0 871.8581081914323,625.5 871.8581081914323,674.5 829.4228634059948,699.0 786.9876186205573,674.5 786.9876186205573,625.5"></polygon>
<polygon style="fill: #9EA76E" points="916.0254037844386,601.0 958.4606485698761,625.5 958.4606485698761,674.5 916.0254037844386,699.0 873.5901589990011,674.5 873.5901589990011,625.5"></polygon>
<polygon style="fill: black" points="1002.6279441628825,601.0 1045.06318894832,625.5 1045.06318894832,674.5 1002.6279441628825,699.0 960.192699377445,674.5 960.192699377445,625.5"></polygon>
<polygon style="fill: #6D9160" points="1002.6279441628825,605.0 1041.5990873331823,627.5 1041.5990873331823,672.5 1002.6279441628825,695.0 963.6568009925827,672.5 963.6568009925827,627.5"></polygon>
<text text-anchor="middle" x="1002.6279441628825" y="675.0">Limerick</text><polygon style="fill: #9EA76E" points="1089.2304845413264,601.0 1131.665729326764,625.5 1131.665729326764,674.5 1089.2304845413264,699.0 1046.7952397558888,674.5 1046.7952397558888,625.5"></polygon>
<polygon style="fill: #9EA76E" points="1175.8330249197702,601.0 1218.2682697052078,625.5 1218.2682697052078,674.5 1175.8330249197702,699.0 1133.3977801343326,674.5 1133.3977801343326,625.5"></polygon>
<polygon style="fill: #6D9160" points="1175.8330249197702,617.0 1204.4118632446566,633.5 1204.4118632446566,666.5 1175.8330249197702,683.0 1147.2541865948838,666.5 1147.2541865948838,633.5"></polygon>
<polygon style="fill: black" points="1262.435565298214,601.0 1304.8708100836516,625.5 1304.8708100836516,674.5 1262.435565298214,699.0 1220.0003205127764,674.5 1220.0003205127764,625.5"></polygon>
<polygon style="fill: #6D9160" points="1262.435565298214,605.0 1301.4067084685137,627.5 1301.4067084685137,672.5 1262.435565298214,695.0 1223.4644221279143,672.5 1223.4644221279143,627.5"></polygon>
<text text-anchor="middle" x="1262.435565298214" y="675.0">Cork</text><polygon style="fill: #9EA76E" points="439.7114317029974,676.0 482.1466764884349,700.5 482.1466764884349,749.5 439.7114317029974,774.0 397.2761869175599,749.5 397.2761869175599,700.5"></polygon>
<polygon style="fill: #6D9160" points="439.7114317029974,692.0 468.2902700278839,708.5 468.2902700278839,741.5 439.7114317029974,758.0 411.1325933781109,741.5 411.1325933781109,708.5"></polygon>
<polygon style="fill: #9EA76E" points="526.3139720814412,676.0 568.7492168668787,700.5 568.7492168668787,749.5 526.3139720814412,774.0 483.8787272960037,749.5 483.8787272960037,700.5"></polygon>
<polygon style="fill: #9EA76E" points="612.9165124598851,676.0 655.3517572453226,700.5 655.3517572453226,749.5 612.9165124598851,774.0 570.4812676744476,749.5 570.4812676744476,700.5"></polygon>
<polygon style="fill: red" points="699.5190528383289,676.0 741.9542976237664,700.5 741.9542976237664,749.5 699.5190528383289,774.0 657.0838080528914,749.5 657.0838080528914,700.5"></polygon>
<polygon style="fill: #6D9160" points="699.5190528383289,680.0 738.4901960086286,702.5 738.4901960086286,747.5 699.5190528383289,770.0 660.5479096680292,747.5 660.5479096680292,702.5"></polygon>
<text text-anchor="middle" x="699.5190528383289" y="750.0">Galway</text><polygon style="fill: #9EA76E" points="872.7241335952167,676.0 915.1593783806542,700.5 915.1593783806542,749.5 872.7241335952167,774.0 830.2888888097792,749.5 830.2888888097792,700.5"></polygon>
<polygon style="fill: black" points="959.3266739736605,676.0 1001.761918759098,700.5 1001.761918759098,749.5 959.3266739736605,774.0 916.891429188223,749.5 916.891429188223,700.5"></polygon>
<polygon style="fill: #6D9160" points="959.3266739736605,680.0 998.2978171439602,702.5 998.2978171439602,747.5 959.3266739736605,770.0 920.3555308033608,747.5 920.3555308033608,702.5"></polygon>
<text text-anchor="middle" x="959.3266739736605" y="750.0">Shannon</text><polygon style="fill: #9EA76E" points="1045.9292143521045,676.0 1088.364459137542,700.5 1088.364459137542,749.5 1045.9292143521045,774.0 1003.493969566667,749.5 1003.493969566667,700.5"></polygon>
<polygon style="fill: #9EA76E" points="1132.5317547305483,676.0 1174.966999515986,700.5 1174.966999515986,749.5 1132.5317547305483,774.0 1090.0965099451107,749.5 1090.0965099451107,700.5"></polygon>
<polygon style="fill: #6D9160" points="1132.5317547305483,692.0 1161.1105930554347,708.5 1161.1105930554347,741.5 1132.5317547305483,758.0 1103.9529164056619,741.5 1103.9529164056619,708.5"></polygon>
<polygon style="fill: #9EA76E" points="1219.134295108992,676.0 1261.5695398944297,700.5 1261.5695398944297,749.5 1219.134295108992,774.0 1176.6990503235545,749.5 1176.6990503235545,700.5"></polygon>
<polygon style="fill: #6D9160" points="1219.134295108992,692.0 1247.7131334338785,708.5 1247.7131334338785,741.5 1219.134295108992,758.0 1190.5554567841057,741.5 1190.5554567841057,708.5"></polygon>
<polygon style="fill: #9EA76E" points="1305.7368354874359,676.0 1348.1720802728735,700.5 1348.1720802728735,749.5 1305.7368354874359,774.0 1263.3015907019983,749.5 1263.3015907019983,700.5"></polygon>
<polygon style="fill: #9EA76E" points="396.41016151377545,751.0 438.8454062992129,775.5 438.8454062992129,824.5 396.41016151377545,849.0 353.974916728338,824.5 353.974916728338,775.5"></polygon>
<polygon style="fill: black" points="483.0127018922193,751.0 525.4479466776568,775.5 525.4479466776568,824.5 483.0127018922193,849.0 440.5774571067818,824.5 440.5774571067818,775.5"></polygon>
<polygon style="fill: #6D9160" points="483.0127018922193,755.0 521.9838450625191,777.5 521.9838450625191,822.5 483.0127018922193,845.0 444.04155872191956,822.5 444.04155872191956,777.5"></polygon>
<text text-anchor="middle" x="483.0127018922193" y="825.0">Castlebar</text><polygon style="fill: #9EA76E" points="569.6152422706632,751.0 612.0504870561007,775.5 612.0504870561007,824.5 569.6152422706632,849.0 527.1799974852257,824.5 527.1799974852257,775.5"></polygon>
<polygon style="fill: #9EA76E" points="656.217782649107,751.0 698.6530274345445,775.5 698.6530274345445,824.5 656.217782649107,849.0 613.7825378636695,824.5 613.7825378636695,775.5"></polygon>
<polygon style="fill: #9EA76E" points="742.8203230275509,751.0 785.2555678129884,775.5 785.2555678129884,824.5 742.8203230275509,849.0 700.3850782421134,824.5 700.3850782421134,775.5"></polygon>
<polygon style="fill: #9EA76E" points="916.0254037844386,751.0 958.4606485698761,775.5 958.4606485698761,824.5 916.0254037844386,849.0 873.5901589990011,824.5 873.5901589990011,775.5"></polygon>
<polygon style="fill: #9EA76E" points="1002.6279441628825,751.0 1045.06318894832,775.5 1045.06318894832,824.5 1002.6279441628825,849.0 960.192699377445,824.5 960.192699377445,775.5"></polygon>
<polygon style="fill: #9EA76E" points="1089.2304845413264,751.0 1131.665729326764,775.5 1131.665729326764,824.5 1089.2304845413264,849.0 1046.7952397558888,824.5 1046.7952397558888,775.5"></polygon>
<polygon style="fill: #6D9160" points="1089.2304845413264,767.0 1117.8093228662128,783.5 1117.8093228662128,816.5 1089.2304845413264,833.0 1060.65164621644,816.5 1060.65164621644,783.5"></polygon>
<polygon style="fill: #9EA76E" points="1175.8330249197702,751.0 1218.2682697052078,775.5 1218.2682697052078,824.5 1175.8330249197702,849.0 1133.3977801343326,824.5 1133.3977801343326,775.5"></polygon>
<polygon style="fill: #6D9160" points="1175.8330249197702,767.0 1204.4118632446566,783.5 1204.4118632446566,816.5 1175.8330249197702,833.0 1147.2541865948838,816.5 1147.2541865948838,783.5"></polygon>
<polygon style="fill: #9EA76E" points="1262.435565298214,751.0 1304.8708100836516,775.5 1304.8708100836516,824.5 1262.435565298214,849.0 1220.0003205127764,824.5 1220.0003205127764,775.5"></polygon>
<polygon style="fill: #6D9160" points="1262.435565298214,767.0 1291.0144036231004,783.5 1291.0144036231004,816.5 1262.435565298214,833.0 1233.8567269733276,816.5 1233.8567269733276,783.5"></polygon>
<polygon style="fill: #9EA76E" points="1349.038105676658,751.0 1391.4733504620956,775.5 1391.4733504620956,824.5 1349.038105676658,849.0 1306.6028608912204,824.5 1306.6028608912204,775.5"></polygon>
<polygon style="fill: #6D9160" points="1349.038105676658,767.0 1377.6169440015444,783.5 1377.6169440015444,816.5 1349.038105676658,833.0 1320.4592673517716,816.5 1320.4592673517716,783.5"></polygon>
<polygon style="fill: #9EA76E" points="439.7114317029974,826.0 482.1466764884349,850.5 482.1466764884349,899.5 439.7114317029974,924.0 397.2761869175599,899.5 397.2761869175599,850.5"></polygon>
<polygon style="fill: #6D9160" points="439.7114317029974,842.0 468.2902700278839,858.5 468.2902700278839,891.5 439.7114317029974,908.0 411.1325933781109,891.5 411.1325933781109,858.5"></polygon>
<polygon style="fill: #9EA76E" points="526.3139720814412,826.0 568.7492168668787,850.5 568.7492168668787,899.5 526.3139720814412,924.0 483.8787272960037,899.5 483.8787272960037,850.5"></polygon>
<polygon style="fill: #6D9160" points="526.3139720814412,842.0 554.8928104063276,858.5 554.8928104063276,891.5 526.3139720814412,908.0 497.7351337565547,891.5 497.7351337565547,858.5"></polygon>
<polygon style="fill: #9EA76E" points="612.9165124598851,826.0 655.3517572453226,850.5 655.3517572453226,899.5 612.9165124598851,924.0 570.4812676744476,899.5 570.4812676744476,850.5"></polygon>
<polygon style="fill: #6D9160" points="612.9165124598851,842.0 641.4953507847715,858.5 641.4953507847715,891.5 612.9165124598851,908.0 584.3376741349987,891.5 584.3376741349987,858.5"></polygon>
<polygon style="fill: #9EA76E" points="699.5190528383289,826.0 741.9542976237664,850.5 741.9542976237664,899.5 699.5190528383289,924.0 657.0838080528914,899.5 657.0838080528914,850.5"></polygon>
<polygon style="fill: #9EA76E" points="1045.9292143521045,826.0 1088.364459137542,850.5 1088.364459137542,899.5 1045.9292143521045,924.0 1003.493969566667,899.5 1003.493969566667,850.5"></polygon>
<polygon style="fill: #9EA76E" points="1132.5317547305483,826.0 1174.966999515986,850.5 1174.966999515986,899.5 1132.5317547305483,924.0 1090.0965099451107,899.5 1090.0965099451107,850.5"></polygon>
<polygon style="fill: black" points="1219.134295108992,826.0 1261.5695398944297,850.5 1261.5695398944297,899.5 1219.134295108992,924.0 1176.6990503235545,899.5 1176.6990503235545,850.5"></polygon>
<polygon style="fill: #6D9160" points="1219.134295108992,830.0 1258.1054382792918,852.5 1258.1054382792918,897.5 1219.134295108992,920.0 1180.1631519386924,897.5 1180.1631519386924,852.5"></polygon>
<text text-anchor="middle" x="1219.134295108992" y="900.0">Killarney</text><polygon style="fill: #9EA76E" points="1305.7368354874359,826.0 1348.1720802728735,850.5 1348.1720802728735,899.5 1305.7368354874359,924.0 1263.3015907019983,899.5 1263.3015907019983,850.5"></polygon>
<polygon style="fill: #6D9160" points="1305.7368354874359,842.0 1334.3156738123223,858.5 1334.3156738123223,891.5 1305.7368354874359,908.0 1277.1579971625495,891.5 1277.1579971625495,858.5"></polygon>
	<text fill="white" font-size="16px" x="1340" y="15" text-anchor="middle" alignment-baseline="middle">BUILD COSTS</text>
<polygon style="fill: #9EA76E" points="1250,25 1275.980762113533,40.0 1275.980762113533,70.0 1250,85 1224.019237886467,70.0 1224.019237886467,40.0"></polygon>
	<text fill="white" font-size="20px" x="1320" y="55" text-anchor="left" alignment-baseline="middle">1 ; 1.5</text>
<polygon style="fill: #9EA76E" points="1250,90 1275.980762113533,105.0 1275.980762113533,135.0 1250,150 1224.019237886467,135.0 1224.019237886467,105.0"></polygon>
<polygon style="fill: #6D9160" points="1250,100 1267.3205080756888,110.0 1267.3205080756888,130.0 1250,140 1232.6794919243112,130.0 1232.6794919243112,110.0"></polygon>
	<text fill="white" font-size="20px" x="1320" y="120" text-anchor="left" alignment-baseline="middle">2 ; N/A</text>
<polygon style="fill: black" points="1220,155 1245.980762113533,170.0 1245.980762113533,200.0 1220,215 1194.019237886467,200.0 1194.019237886467,170.0"></polygon>
<polygon style="fill: #6D9160" points="1220,157 1244.2487113059642,171.0 1244.2487113059642,199.0 1220,213 1195.7512886940358,199.0 1195.7512886940358,171.0"></polygon>
<polygon style="fill: red" points="1280,155 1305.980762113533,170.0 1305.980762113533,200.0 1280,215 1254.019237886467,200.0 1254.019237886467,170.0"></polygon>
<polygon style="fill: #6D9160" points="1280,157 1304.2487113059642,171.0 1304.2487113059642,199.0 1280,213 1255.7512886940358,199.0 1255.7512886940358,171.0"></polygon>
	<text fill="white" font-size="20px" x="1320" y="185" text-anchor="left" alignment-baseline="middle">1 ; 1.5</text>
	<text fill="white" font-size="20px" x="1200" y="250" text-anchor="left" alignment-baseline="middle">&#163;12 Bonus for all</text>
	<text fill="white" font-size="20px" x="1200" y="270" text-anchor="left" alignment-baseline="middle">red cities connected</text>
	<text fill="white" font-size="20px" x="1200" y="300" text-anchor="left" alignment-baseline="middle">Town = no interest cube</text>
	<text fill="white" font-size="20px" x="1200" y="320" text-anchor="left" alignment-baseline="middle">&#163;2 Income</text>
	<text fill="white" font-size="20px" x="1200" y="350" text-anchor="left" alignment-baseline="middle">City = interest cube</text>
	<text fill="white" font-size="20px" x="1200" y="370" text-anchor="left" alignment-baseline="middle">&#163;4 Income</text>
	<text fill="white" font-size="20px" x="1200" y="400" text-anchor="left" alignment-baseline="middle">Lines only pay if either:</text>
	<text fill="white" font-size="20px" x="1200" y="420" text-anchor="left" alignment-baseline="middle">   * paying city + town</text>
	<text fill="white" font-size="20px" x="1200" y="440" text-anchor="left" alignment-baseline="middle">   * 2 paying cities</text>
</svg>