<svg viewBox="0 0 240 75" xmlns="http://www.w3.org/2000/svg">
	<rect x="0" y="0" width="20" height="20" fill="#FFFF00" stroke="#000000" />
	<text x="10.0" y="10.0" fill="#000000" font-size="12" text-anchor="middle" alignment-baseline="middle">1</text>
	<rect x="20" y="0" width="20" height="20" fill="#FFFF00" stroke="#000000" />
	<text x="30.0" y="10.0" fill="#000000" font-size="12" text-anchor="middle" alignment-baseline="middle">2</text>
	<rect x="40" y="0" width="20" height="20" fill="#FFFF00" stroke="#000000" />
	<text x="50.0" y="10.0" fill="#000000" font-size="12" text-anchor="middle" alignment-baseline="middle">3</text>
	<rect x="60" y="0" width="20" height="20" fill="#0000FF" stroke="#000000" />
	<text x="70.0" y="10.0" fill="#FFFFFF" font-size="12" text-anchor="middle" alignment-baseline="middle">4</text>
	<rect x="80" y="0" width="20" height="20" fill="#FFFF00" stroke="#000000" />
	<text x="90.0" y="10.0" fill="#000000" font-size="12" text-anchor="middle" alignment-baseline="middle">5</text>
	<rect x="100" y="0" width="20" height="20" fill="#0000FF" stroke="#000000" />
	<text x="110.0" y="10.0" fill="#FFFFFF" font-size="12" text-anchor="middle" alignment-baseline="middle">6</text>
	<rect x="120" y="0" width="20" height="20" fill="#FFFF00" stroke="#000000" />
	<text x="130.0" y="10.0" fill="#000000" font-size="12" text-anchor="middle" alignment-baseline="middle">7</text>
	<rect x="140" y="0" width="20" height="20" fill="#0000FF" stroke="#000000" />
	<text x="150.0" y="10.0" fill="#FFFFFF" font-size="12" text-anchor="middle" alignment-baseline="middle">8</text>
	<rect x="160" y="0" width="20" height="20" fill="#FFFF00" stroke="#000000" />
	<text x="170.0" y="10.0" fill="#000000" font-size="12" text-anchor="middle" alignment-baseline="middle">9</text>
	<rect x="180" y="0" width="20" height="20" fill="#0000FF" stroke="#000000" />
	<text x="190.0" y="10.0" fill="#FFFFFF" font-size="12" text-anchor="middle" alignment-baseline="middle">10</text>
	<rect x="200" y="0" width="20" height="20" fill="#FF0000" stroke="#000000" />
	<text x="210.0" y="10.0" fill="#000000" font-size="12" text-anchor="middle" alignment-baseline="middle">11</text>
	<rect x="220" y="0" width="20" height="20" fill="#FFFF00" stroke="#000000" />
	<text x="230.0" y="10.0" fill="#000000" font-size="12" text-anchor="middle" alignment-baseline="middle">12</text>
	<rect x="0" y="24.0" width="20" height="20" fill="#0000FF" stroke="#000000" />
	<text x="10.0" y="34.0" fill="#FFFFFF" font-size="12" text-anchor="middle" alignment-baseline="middle">13</text>
	<rect x="20" y="24.0" width="20" height="20" fill="#FF0000" stroke="#000000" />
	<text x="30.0" y="34.0" fill="#000000" font-size="12" text-anchor="middle" alignment-baseline="middle">14</text>
	<rect x="40" y="24.0" width="20" height="20" fill="#FFFF00" stroke="#000000" />
	<text x="50.0" y="34.0" fill="#000000" font-size="12" text-anchor="middle" alignment-baseline="middle">15</text>
	<rect x="60" y="24.0" width="20" height="20" fill="#FF0000" stroke="#000000" />
	<text x="70.0" y="34.0" fill="#000000" font-size="12" text-anchor="middle" alignment-baseline="middle">16</text>
	<rect x="80" y="24.0" width="20" height="20" fill="#0000FF" stroke="#000000" />
	<text x="90.0" y="34.0" fill="#FFFFFF" font-size="12" text-anchor="middle" alignment-baseline="middle">17</text>
	<rect x="100" y="24.0" width="20" height="20" fill="#FFFF00" stroke="#000000" />
	<text x="110.0" y="34.0" fill="#000000" font-size="12" text-anchor="middle" alignment-baseline="middle">18</text>
	<rect x="120" y="24.0" width="20" height="20" fill="#0000FF" stroke="#000000" />
	<text x="130.0" y="34.0" fill="#FFFFFF" font-size="12" text-anchor="middle" alignment-baseline="middle">20</text>
	<rect x="140" y="24.0" width="20" height="20" fill="#FF0000" stroke="#000000" />
	<text x="150.0" y="34.0" fill="#000000" font-size="12" text-anchor="middle" alignment-baseline="middle">21</text>
	<rect x="160" y="24.0" width="20" height="20" fill="#FFFF00" stroke="#000000" />
	<text x="170.0" y="34.0" fill="#000000" font-size="12" text-anchor="middle" alignment-baseline="middle">22</text>
	<rect x="180" y="24.0" width="20" height="20" fill="#FF0000" stroke="#000000" />
	<text x="190.0" y="34.0" fill="#000000" font-size="12" text-anchor="middle" alignment-baseline="middle">23</text>
	<rect x="200" y="24.0" width="20" height="20" fill="#0000FF" stroke="#000000" />
	<text x="210.0" y="34.0" fill="#FFFFFF" font-size="12" text-anchor="middle" alignment-baseline="middle">24</text>
	<rect x="220" y="24.0" width="20" height="20" fill="#FFFF00" stroke="#000000" />
	<text x="230.0" y="34.0" fill="#000000" font-size="12" text-anchor="middle" alignment-baseline="middle">25</text>
	<rect x="0" y="48.0" width="20" height="20" fill="#FF0000" stroke="#000000" />
	<text x="10.0" y="58.0" fill="#000000" font-size="12" text-anchor="middle" alignment-baseline="middle">26</text>
	<rect x="20" y="48.0" width="20" height="20" fill="#0000FF" stroke="#000000" />
	<text x="30.0" y="58.0" fill="#FFFFFF" font-size="12" text-anchor="middle" alignment-baseline="middle">27</text>
	<rect x="40" y="48.0" width="20" height="20" fill="#FFFF00" stroke="#000000" />
	<text x="50.0" y="58.0" fill="#000000" font-size="12" text-anchor="middle" alignment-baseline="middle">28</text>
	<rect x="60" y="48.0" width="20" height="20" fill="#FF0000" stroke="#000000" />
	<text x="70.0" y="58.0" fill="#000000" font-size="12" text-anchor="middle" alignment-baseline="middle">29</text>
	<rect x="80" y="48.0" width="20" height="20" fill="#0000FF" stroke="#000000" />
	<text x="90.0" y="58.0" fill="#FFFFFF" font-size="12" text-anchor="middle" alignment-baseline="middle">30</text>
	<rect x="100" y="48.0" width="20" height="20" fill="#FF0000" stroke="#000000" />
	<text x="110.0" y="58.0" fill="#000000" font-size="12" text-anchor="middle" alignment-baseline="middle">31</text>
	<rect x="120" y="48.0" width="20" height="20" fill="#0000FF" stroke="#000000" />
	<text x="130.0" y="58.0" fill="#FFFFFF" font-size="12" text-anchor="middle" alignment-baseline="middle">32</text>
	<rect x="140" y="48.0" width="20" height="20" fill="#FF0000" stroke="#000000" />
	<text x="150.0" y="58.0" fill="#000000" font-size="12" text-anchor="middle" alignment-baseline="middle">33</text>
	<rect x="160" y="48.0" width="20" height="20" fill="#0000FF" stroke="#000000" />
	<text x="170.0" y="58.0" fill="#FFFFFF" font-size="12" text-anchor="middle" alignment-baseline="middle">34</text>
	<rect x="180" y="48.0" width="20" height="20" fill="#FF0000" stroke="#000000" />
	<text x="190.0" y="58.0" fill="#000000" font-size="12" text-anchor="middle" alignment-baseline="middle">35</text>
	<rect x="200" y="48.0" width="20" height="20" fill="#FF0000" stroke="#000000" />
	<text x="210.0" y="58.0" fill="#000000" font-size="12" text-anchor="middle" alignment-baseline="middle">36</text>
	<rect x="220" y="48.0" width="20" height="20" fill="#FF0000" stroke="#000000" />
	<text x="230.0" y="58.0" fill="#000000" font-size="12" text-anchor="middle" alignment-baseline="middle">37</text>
</svg>